<?xml version="1.0" encoding="UTF-8"?>
<svg version="1.1" xmlns="http://www.w3.org/2000/svg" width="517" height="517">
<path d="M0 0 C1.40783752 0.00539291 1.40783752 0.00539291 2.84411621 0.01089478 C17.33668254 0.09026514 30.85073812 1.19723901 44.75 5.5625 C46.12830154 5.9526634 47.50718305 6.34078555 48.88671875 6.7265625 C75.81291309 14.86253489 98.25660221 33.23162169 113.75 56.5625 C114.471875 57.62855469 115.19375 58.69460937 115.9375 59.79296875 C136.83182961 91.87305976 143.9391317 131.79359592 136.65209961 169.25219727 C136.05922677 172.0336828 135.4167571 174.79782732 134.75 177.5625 C134.39591064 179.05523437 134.39591064 179.05523437 134.03466797 180.578125 C127.25163491 208.42748317 115.74679339 236.31527291 98.75 259.5625 C98.20214844 260.32046875 97.65429688 261.0784375 97.08984375 261.859375 C88.92778053 272.74212596 79.14348763 282.26340663 69.5625 291.875 C69.08932343 292.35085541 68.61614685 292.82671082 68.12863159 293.31698608 C59.46056415 302.02219676 59.46056415 302.02219676 54.87890625 305.921875 C48.24431934 311.60830226 42.25733888 318.03305283 36.14257812 324.26586914 C34.4769587 325.96150186 32.80532413 327.65101301 31.1328125 329.33984375 C30.62138702 329.86472885 30.10996155 330.38961395 29.58303833 330.93040466 C28.34282171 332.17945159 27.05066105 333.37652517 25.75 334.5625 C25.09 334.5625 24.43 334.5625 23.75 334.5625 C23.09 335.8825 22.43 337.2025 21.75 338.5625 C21.09 338.5625 20.43 338.5625 19.75 338.5625 C19.42 339.5525 19.09 340.5425 18.75 341.5625 C17.26708984 343.01977539 17.26708984 343.01977539 15.3359375 344.59765625 C9.0485435 349.9297367 3.40086107 355.90271303 -2.35546875 361.79492188 C-3.21527344 362.66568359 -4.07507813 363.53644531 -4.9609375 364.43359375 C-5.73743652 365.22693115 -6.51393555 366.02026855 -7.31396484 366.83764648 C-9.25 368.5625 -9.25 368.5625 -11.25 368.5625 C-11.25 369.2225 -11.25 369.8825 -11.25 370.5625 C-12.47265625 371.76171875 -12.47265625 371.76171875 -14.3125 373.25 C-18.69823925 376.96341558 -22.71475367 380.9784382 -26.75 385.0625 C-31.13234571 389.48872804 -35.51932777 393.79592367 -40.28125 397.81640625 C-45.60128161 402.53476762 -50.5724773 407.72831373 -55.453125 412.89453125 C-57.25 414.5625 -57.25 414.5625 -59.25 414.5625 C-59.25 415.2225 -59.25 415.8825 -59.25 416.5625 C-60.65283203 417.93969727 -60.65283203 417.93969727 -62.6328125 419.56640625 C-68.69660145 424.72022599 -74.1576714 430.45871231 -79.7109375 436.15039062 C-80.525625 436.97603516 -81.3403125 437.80167969 -82.1796875 438.65234375 C-82.91429199 439.40378662 -83.64889648 440.15522949 -84.40576172 440.92944336 C-86.25 442.5625 -86.25 442.5625 -88.25 442.5625 C-88.4975 443.18125 -88.745 443.8 -89 444.4375 C-90.45628639 446.91318687 -91.62812506 447.51375002 -94.25 448.5625 C-94.25 449.2225 -94.25 449.8825 -94.25 450.5625 C-94.91 450.5625 -95.57 450.5625 -96.25 450.5625 C-96.25 451.2225 -96.25 451.8825 -96.25 452.5625 C-97.7890625 454.11328125 -97.7890625 454.11328125 -99.875 455.875 C-100.60203125 456.49117188 -101.3290625 457.10734375 -102.078125 457.7421875 C-103.15320313 458.64324219 -103.15320313 458.64324219 -104.25 459.5625 C-105.13945312 460.33980469 -105.13945312 460.33980469 -106.046875 461.1328125 C-110.00571429 464.5625 -110.00571429 464.5625 -112.25 464.5625 C-112.37444307 459.31559717 -112.46473269 454.06957023 -112.5246582 448.8215332 C-112.54966208 447.03980528 -112.58367707 445.25817847 -112.62719727 443.47680664 C-113.08130991 424.39873298 -113.08130991 424.39873298 -107.25 417.5625 C-106.58355469 416.76714844 -105.91710937 415.97179687 -105.23046875 415.15234375 C-104.34294922 414.33443359 -104.34294922 414.33443359 -103.4375 413.5 C-102.53064453 412.64728516 -102.53064453 412.64728516 -101.60546875 411.77734375 C-101.15816406 411.37644531 -100.71085937 410.97554688 -100.25 410.5625 C-101.3946875 409.69625 -101.3946875 409.69625 -102.5625 408.8125 C-107.46035779 404.7119679 -109.77706902 400.70594007 -110.51171875 394.26953125 C-110.93595191 384.83400053 -107.0212318 376.93493259 -100.79296875 369.921875 C-96.02307988 364.96208423 -90.68188693 360.76783181 -85.25 356.5625 C-83.76306641 355.40234375 -83.76306641 355.40234375 -82.24609375 354.21875 C-67.3224163 342.61788638 -52.05033431 331.65761386 -36.00488281 321.65722656 C-26.99088482 316.03177351 -18.1233936 310.20323112 -9.31323242 304.26504517 C-7.95785612 303.35189827 -6.60128257 302.44052546 -5.2434082 301.53109741 C21.18975393 283.80938539 42.21109516 263.30525723 49.75 231.5625 C48.14214223 232.15677388 46.53882291 232.76333588 44.9375 233.375 C44.04417969 233.71144531 43.15085937 234.04789063 42.23046875 234.39453125 C39.81069934 235.53391874 38.56582974 236.65942319 36.75 238.5625 C36.09 238.5625 35.43 238.5625 34.75 238.5625 C34.75 239.2225 34.75 239.8825 34.75 240.5625 C33.62237704 241.69012296 32.49109204 242.81419604 31.34765625 243.92578125 C25.27969179 250.1421067 20.54095323 257.31935583 15.8125 264.5625 C2.81803944 284.33526224 2.81803944 284.33526224 -6.25 286.5625 C-14.45757272 287.48045221 -20.31226739 285.60709193 -27.5 281.875 C-31.97149292 278.11488096 -34.058106 273.22683434 -35.25 267.5625 C-36.44661831 252.30561653 -25.36117837 240.61512573 -16.25 229.5625 C-15.44691406 228.55058594 -14.64382813 227.53867187 -13.81640625 226.49609375 C-12.60791016 224.98208984 -12.60791016 224.98208984 -11.375 223.4375 C-10.63507813 222.50679687 -9.89515625 221.57609375 -9.1328125 220.6171875 C-8.20082031 219.60011719 -8.20082031 219.60011719 -7.25 218.5625 C-6.59 218.5625 -5.93 218.5625 -5.25 218.5625 C-4.99476563 217.98628906 -4.73953125 217.41007813 -4.4765625 216.81640625 C-3.12200682 214.32730234 -1.56269364 212.56507191 0.375 210.5 C5.3035045 205.07594203 10.45447837 199.15354327 13.75 192.5625 C14.41 192.5625 15.07 192.5625 15.75 192.5625 C16.01554688 191.83675781 16.28109375 191.11101562 16.5546875 190.36328125 C17.75362227 187.55401253 19.16478575 185.27554895 20.875 182.75 C35.227513 160.44380271 42.82718931 135.52864262 37.5625 108.9375 C32.43460624 89.15512086 21.0028058 74.78152808 3.55859375 64.16015625 C-14.79851542 53.71779512 -36.52678113 51.35170783 -57.0234375 56.5859375 C-66.43416722 59.43422131 -75.22784868 62.8114384 -83.921875 67.42578125 C-86.25 68.5625 -86.25 68.5625 -88.25 68.5625 C-88.25 69.2225 -88.25 69.8825 -88.25 70.5625 C-89.4565625 71.3359375 -89.4565625 71.3359375 -90.6875 72.125 C-99.36860739 77.75653805 -104.8159192 85.45094091 -109.79980469 94.32910156 C-110.98828125 96.37890625 -110.98828125 96.37890625 -113.25 99.5625 C-114.57 99.5625 -115.89 99.5625 -117.25 99.5625 C-116.42342692 73.93873437 -100.50569976 46.23641682 -82.39453125 28.7734375 C-77.35672349 24.20823845 -71.91136187 20.31358639 -66.25 16.5625 C-65.49203125 16.046875 -64.7340625 15.53125 -63.953125 15 C-44.86390167 2.70090309 -22.21103282 -0.21211788 0 0 Z " fill="#88AFB9" transform="translate(378.25,42.4375)"/>
<path d="M0 0 C0.64066406 0.48984375 1.28132812 0.9796875 1.94140625 1.484375 C20.42881787 16.20813012 31.71510828 44.46327782 37 67 C37.25998109 69.77592711 37.21870873 72.21146371 37 75 C35.68 75 34.36 75 33 75 C31.66161267 72.54429825 30.32913768 70.08570084 29 67.625 C28.6184375 66.92632812 28.236875 66.22765625 27.84375 65.5078125 C25 60.2265625 25 60.2265625 25 58 C24.34 58 23.68 58 23 58 C21.5625 56.50390625 21.5625 56.50390625 20 54.5625 C17.85474956 51.84811762 17.85474956 51.84811762 15 50 C15 49.34 15 48.68 15 48 C14.27554688 47.73703125 13.55109375 47.4740625 12.8046875 47.203125 C9.95086598 45.97892301 7.67520359 44.5136922 5.125 42.75 C-13.44859751 30.8222291 -36.0190702 26.32448075 -57.6875 30.1875 C-71.06848979 33.23437805 -83.46112103 38.35623228 -93.24609375 48.27734375 C-95 50 -95 50 -97 50 C-97.26554687 50.59296875 -97.53109375 51.1859375 -97.8046875 51.796875 C-99.03104515 54.05722047 -100.31076459 55.4442029 -102.125 57.25 C-116.33614332 73.24496884 -118.09828454 93.66484084 -117.20703125 114.13183594 C-115.64941393 135.71071361 -102.10706432 157.53734705 -89 174 C-88.29101562 174.89074219 -87.58203125 175.78148437 -86.8515625 176.69921875 C-82.71720606 181.81119377 -78.4657187 186.82101514 -74.1875 191.8125 C-73.68476563 192.39926514 -73.18203125 192.98603027 -72.6640625 193.59057617 C-70.06565234 196.61642151 -67.45181278 199.62693668 -64.8125 202.6171875 C-53.84980505 215.09912742 -43.56252912 227.83172657 -43.79296875 245.09375 C-44.18896038 250.65257585 -46.38767003 253.61883676 -50.375 257.25 C-55.82047093 261.87492052 -61.04498417 262.4671153 -68.0078125 262.296875 C-75.95578533 261.50830328 -80.43770778 257.15032127 -85.50390625 251.25 C-89.74450148 245.89273196 -93.39828265 240.09864278 -97.10546875 234.3671875 C-99.52293482 230.6399488 -102.14038215 227.11998211 -104.8918457 223.63330078 C-106 222 -106 222 -106 220 C-106.66 220 -107.32 220 -108 220 C-108.7425 218.989375 -109.485 217.97875 -110.25 216.9375 C-114.78919315 211.34904612 -121.58219992 208.89240579 -128 206 C-123.85156585 222.8613775 -118.11068226 236.34396144 -107 250 C-106.39414063 250.74765625 -105.78828125 251.4953125 -105.1640625 252.265625 C-102.47872441 255.60328542 -102.47872441 255.60328542 -99 258 C-99 258.66 -99 259.32 -99 260 C-98.443125 260.24492187 -97.88625 260.48984375 -97.3125 260.7421875 C-94.55205315 262.24364676 -92.38965403 264.08383718 -90 266.125 C-78.80351976 275.37490263 -66.21254074 282.66186645 -53.90234375 290.31640625 C-45.61904944 295.47634602 -37.34997542 300.64976879 -29.3125 306.1875 C-28.6431543 306.64817871 -27.97380859 307.10885742 -27.28417969 307.58349609 C-20.32774746 312.40885144 -13.57163084 317.49038333 -6.83251953 322.61279297 C-5.1336642 323.89881695 -3.42697829 325.17313906 -1.71484375 326.44140625 C29.43737116 349.55433989 29.43737116 349.55433989 32.0625 366 C32.402447 372.16760987 30.46752528 377.89816738 26.6171875 382.73828125 C25.25 384.125 25.25 384.125 23 386 C24.85166982 390.08293196 27.51552433 393.23819171 30.34375 396.68359375 C36.13819014 404.78761027 35.15646898 414.74636744 35.125 424.25 C35.12886719 425.43335938 35.13273438 426.61671875 35.13671875 427.8359375 C35.13478516 429.53363281 35.13478516 429.53363281 35.1328125 431.265625 C35.13168457 432.29461914 35.13055664 433.32361328 35.12939453 434.38378906 C35 437 35 437 34 440 C32.35 439.34 30.7 438.68 29 438 C29 437.34 29 436.68 29 436 C28.34 436 27.68 436 27 436 C27 435.34 27 434.68 27 434 C26.40387405 433.72951843 25.80774811 433.45903687 25.19355774 433.18035889 C23.01886052 432.0101489 21.62704896 430.86379254 19.90307617 429.11425781 C19.32534958 428.53315247 18.74762299 427.95204712 18.15238953 427.35333252 C17.53878067 426.72626404 16.92517181 426.09919556 16.29296875 425.453125 C15.32753899 424.47989288 15.32753899 424.47989288 14.34260559 423.48699951 C12.28609095 421.4126974 10.23637046 419.33185075 8.1875 417.25 C6.14853091 415.1832652 4.10807329 413.11805896 2.06452942 411.05584717 C0.79498068 409.77420504 -0.47188828 408.48990062 -1.73554993 407.20245361 C-5.23830172 403.66074264 -8.83158651 400.37747529 -12.71855164 397.25897217 C-13.35286858 396.63578094 -13.35286858 396.63578094 -14 396 C-14 395.34 -14 394.68 -14 394 C-14.59474121 393.73195557 -15.18948242 393.46391113 -15.80224609 393.18774414 C-18.01812796 391.99020301 -19.42079528 390.79681017 -21.1640625 388.99609375 C-22.01097656 388.13274414 -22.01097656 388.13274414 -22.875 387.25195312 C-23.4525 386.65318359 -24.03 386.05441406 -24.625 385.4375 C-25.78160151 384.24650616 -26.94035778 383.05759995 -28.1015625 381.87109375 C-28.61025879 381.34443115 -29.11895508 380.81776855 -29.64306641 380.27514648 C-30.99400105 378.8835783 -30.99400105 378.8835783 -33 378 C-33 377.34 -33 376.68 -33 376 C-33.59474121 375.73195557 -34.18948242 375.46391113 -34.80224609 375.18774414 C-37.01812796 373.99020301 -38.42079528 372.79681017 -40.1640625 370.99609375 C-41.01097656 370.13274414 -41.01097656 370.13274414 -41.875 369.25195312 C-42.4525 368.65318359 -43.03 368.05441406 -43.625 367.4375 C-44.78160151 366.24650616 -45.94035778 365.05759995 -47.1015625 363.87109375 C-47.61025879 363.34443115 -48.11895508 362.81776855 -48.64306641 362.27514648 C-49.99400105 360.8835783 -49.99400105 360.8835783 -52 360 C-52 359.34 -52 358.68 -52 358 C-52.53109375 357.79761719 -53.0621875 357.59523438 -53.609375 357.38671875 C-57.04219269 355.39546012 -59.50892843 352.65529878 -62.25 349.8125 C-67.39842324 344.54495807 -67.39842324 344.54495807 -72.875 339.625 C-75.60550754 337.26889724 -78.21194743 334.84309681 -80.75 332.28125 C-81.42691895 331.6011084 -82.10383789 330.9209668 -82.80126953 330.22021484 C-84.16952373 328.83778518 -85.5351456 327.45274456 -86.89794922 326.06494141 C-87.52717285 325.42733887 -88.15639648 324.78973633 -88.8046875 324.1328125 C-89.37171387 323.55418457 -89.93874023 322.97555664 -90.52294922 322.37939453 C-91.97110166 320.89627065 -91.97110166 320.89627065 -94 320 C-94 319.34 -94 318.68 -94 318 C-94.66 318 -95.32 318 -96 318 C-96 317.34 -96 316.68 -96 316 C-96.66 316 -97.32 316 -98 316 C-98 315.34 -98 314.68 -98 314 C-98.58254547 313.74309891 -99.16509094 313.48619781 -99.76528931 313.22151184 C-102.20442614 311.88825894 -103.80372747 310.43054436 -105.75537109 308.45581055 C-106.47647064 307.73133224 -107.19757019 307.00685394 -107.94052124 306.26042175 C-108.71038361 305.47709976 -109.48024597 304.69377777 -110.2734375 303.88671875 C-111.07480133 303.08015335 -111.87616516 302.27358795 -112.70181274 301.44258118 C-115.26433076 298.86225124 -117.82008125 296.27535288 -120.375 293.6875 C-122.92360407 291.11120418 -125.47367165 288.53640218 -128.02676392 285.96455383 C-129.61451713 284.36462817 -131.19958985 282.76203659 -132.78158569 281.15641785 C-135.9293329 277.98040894 -139.04213665 274.89137819 -142.53369141 272.09301758 C-143.34757324 271.40232178 -144.16145508 270.71162598 -145 270 C-145 269.34 -145 268.68 -145 268 C-145.58628174 267.73823975 -146.17256348 267.47647949 -146.77661133 267.20678711 C-149.12431048 265.93252809 -150.68581889 264.57261122 -152.57421875 262.69140625 C-153.23728027 262.03261475 -153.9003418 261.37382324 -154.58349609 260.69506836 C-155.62497803 259.63944702 -155.62497803 259.63944702 -156.6875 258.5625 C-157.40502441 257.83748291 -158.12254883 257.11246582 -158.86181641 256.36547852 C-183.48876384 231.23975041 -200.45762503 198.12683796 -209.40771484 164.23876953 C-209.97391733 162.09858948 -210.57144923 159.9695159 -211.17578125 157.83984375 C-221.74328384 119.60801219 -217.10469458 78.49571559 -197.65600586 44.01196289 C-193.68335671 37.20135709 -189.00099624 31.07930951 -184 25 C-183.37480469 24.22140625 -182.74960938 23.4428125 -182.10546875 22.640625 C-180.79397838 21.04513793 -179.40670408 19.51220688 -178 18 C-177.34 18 -176.68 18 -176 18 C-175.7525 17.38125 -175.505 16.7625 -175.25 16.125 C-173.76259631 13.59641373 -172.56321991 13.28160996 -170 12 C-168.73195434 9.9664052 -168.73195434 9.9664052 -168 8 C-167.34 8 -166.68 8 -166 8 C-166 7.34 -166 6.68 -166 6 C-150.6041386 -8.37315606 -131.11093942 -15.94733423 -111 -21 C-109.89084229 -21.28810547 -109.89084229 -21.28810547 -108.75927734 -21.58203125 C-72.82905962 -30.50710074 -28.91527135 -23.5276396 0 0 Z " fill="#88AFBA" transform="translate(216,67)"/>
<path d="M0 0 C3.75508333 1.57189535 6.20927235 3.94478098 9.125 6.75 C24.51794518 21.0741695 40.80381523 23.37288345 61.02929688 22.78515625 C66.98218943 22.70158022 71.77258858 23.32758555 77.40771484 25.20410156 C88.60371571 28.64156274 100.24026996 28.2471891 111.8125 28.125 C113.4876248 28.11494114 115.16275552 28.10582047 116.83789062 28.09765625 C120.89207629 28.07589355 124.9459706 28.04152737 129 28 C128.67 29.65 128.34 31.3 128 33 C127.34 33 126.68 33 126 33 C126 33.66 126 34.32 126 35 C125.34 35 124.68 35 124 35 C123.74605469 35.598125 123.49210937 36.19625 123.23046875 36.8125 C121.85560552 39.2567013 120.57306794 40.36564047 118.3125 42 C117.66925781 42.474375 117.02601563 42.94875 116.36328125 43.4375 C99.44056276 54.62607421 77.32285786 53.81310633 58 50 C52.14640998 48.72421756 46.53261741 47.32109808 41 45 C41 45.66 41 46.32 41 47 C41.78375 47.226875 42.5675 47.45375 43.375 47.6875 C46.43808928 48.79654957 49.07040145 50.04797161 51.9375 51.5625 C56.09980277 53.71281351 59.38732449 54.50928984 64 55 C65.18695418 57.37390836 65.12075833 58.80244951 65.11352539 61.44970703 C65.11341209 62.83091232 65.11341209 62.83091232 65.11329651 64.24002075 C65.10813522 65.23589203 65.10297394 66.23176331 65.09765625 67.2578125 C65.0962413 68.27600067 65.09482635 69.29418884 65.09336853 70.3432312 C65.087759 73.60385035 65.07520488 76.86440151 65.0625 80.125 C65.05748623 82.33203026 65.05292311 84.53906159 65.04882812 86.74609375 C65.03778648 92.16408581 65.02103905 97.58203805 65 103 C55.06996093 101.56488946 47.58350134 94.6667833 40.0625 88.375 C39.53132568 87.93236816 39.00015137 87.48973633 38.45288086 87.03369141 C34.85990878 83.95302631 31.85535878 80.75456016 29 77 C29 76.34 29 75.68 29 75 C28.34 75 27.68 75 27 75 C11.82217319 54.19283836 0.74126543 26.68366506 -1 1 C-0.67 0.67 -0.34 0.34 0 0 Z " fill="#E87061" transform="translate(183,270)"/>
<path d="M0 0 C7.27803672 2.25272565 12.96197536 6.56793021 17 13 C24.79229926 29.55610595 24.19145036 45.63541995 20 63 C19.01773438 62.85691406 19.01773438 62.85691406 18.015625 62.7109375 C17.10296875 62.60007812 16.1903125 62.48921875 15.25 62.375 C14.36828125 62.25898438 13.4865625 62.14296875 12.578125 62.0234375 C9.36289826 62.00237706 6.7820864 62.36498955 3.64453125 62.96484375 C-3.38307204 64.22082241 -10.30370794 64.26857465 -17.41235352 64.20581055 C-19.59077379 64.18725922 -21.76877363 64.1853036 -23.94726562 64.18554688 C-34.5553824 64.14820587 -34.5553824 64.14820587 -38 63 C-37.67 62.01 -37.34 61.02 -37 60 C-34.19921875 58.68359375 -34.19921875 58.68359375 -30.6875 57.4375 C-25.22931142 55.48134167 -25.22931142 55.48134167 -20 53 C-26.34309924 54.19283946 -32.59807015 55.60595359 -38.84765625 57.21875 C-39.88792969 57.4765625 -40.92820312 57.734375 -42 58 C-42.93936401 58.26031006 -42.93936401 58.26031006 -43.89770508 58.52587891 C-65.04090098 63.94098478 -88.0255656 60.66883507 -106.79296875 50 C-111.3906534 47.13274721 -114.71683866 44.96311324 -117 40 C-116.4237085 39.9906543 -115.84741699 39.98130859 -115.25366211 39.97167969 C-93.12554519 39.52663031 -70.38416727 37.23056631 -50 28 C-48.06816786 27.255947 -46.13015522 26.52781878 -44.1875 25.8125 C-43.25292969 25.46832031 -42.31835938 25.12414062 -41.35546875 24.76953125 C-39 24 -39 24 -37 24 C-37 23.34 -37 22.68 -37 22 C-36.13761719 21.60039062 -35.27523437 21.20078125 -34.38671875 20.7890625 C-30.8693311 18.93097306 -27.94325683 16.82515752 -24.8125 14.375 C-23.97211182 13.7255542 -23.97211182 13.7255542 -23.11474609 13.06298828 C-20.32749326 10.89477493 -17.60454568 8.68086619 -14.95703125 6.34375 C-14.02246094 5.5290625 -13.08789062 4.714375 -12.125 3.875 C-10.89136719 2.75738281 -10.89136719 2.75738281 -9.6328125 1.6171875 C-6.17559663 -0.50638427 -3.99818204 -0.42039051 0 0 Z " fill="#E97464" transform="translate(309,229)"/>
<path d="M0 0 C1.18577738 0.71940469 2.3553458 1.46681555 3.5 2.25 C4.36625 2.78625 5.2325 3.3225 6.125 3.875 C12.48953128 10.23953128 16.41287187 18.42767779 17 27.375 C16.88979768 34.68842689 13.65639902 41.55317534 8.92578125 47.09375 C7.5 48.25 7.5 48.25 5.5 48.25 C5.5 48.91 5.5 49.57 5.5 50.25 C-3.32116866 53.83696736 -10.47266039 55.43985759 -19.71875 52.55859375 C-26.48574981 49.65659191 -30.76752879 44.2529501 -34.375 38 C-37.1235573 28.83814234 -37.38129826 20.38102481 -33.30859375 11.71484375 C-26.84581356 -0.24218009 -13.04469529 -6.36022428 0 0 Z " fill="#E97666" transform="translate(236.5,164.75)"/>
<path d="M0 0 C7.74138946 7.96907738 9.65742701 15.57196149 9.515625 26.66796875 C8.93542297 31.89558903 7.01037876 35.84724012 4.125 40.1875 C3.69832031 40.87070313 3.27164063 41.55390625 2.83203125 42.2578125 C-1.41391203 47.05757446 -8.66919903 49.62522601 -14.859375 50.7109375 C-22.57357637 50.99422738 -28.56450426 48.74561035 -34.625 44.0625 C-40.75277197 36.23256915 -43.5589566 28.13259867 -42.875 18.1875 C-41.61218486 10.2317646 -37.92583628 3.70853709 -31.9375 -1.75 C-21.58645099 -8.72111464 -10.01623273 -6.31458151 0 0 Z " fill="#E87666" transform="translate(303.875,168.8125)"/>
<path d="M0 0 C5.9150916 4.99851885 12.5238994 11.67073091 15.375 19 C15.375 20.32 15.375 21.64 15.375 23 C12.48368906 24.57013786 9.799057 25.49448595 6.59375 26.21875 C5.6752124 26.42798096 4.7566748 26.63721191 3.81030273 26.8527832 C2.84165283 27.06636475 1.87300293 27.27994629 0.875 27.5 C-0.61567993 27.83100708 -0.61567993 27.83100708 -2.13647461 28.16870117 C-18.98457129 31.86908069 -36.79263977 34.61078674 -53.625 29 C-54.33599061 19.93486968 -51.9793207 9.61458203 -46.1640625 2.42578125 C-34.15058307 -8.70345731 -13.10392845 -9.47025678 0 0 Z " fill="#E87566" transform="translate(237.625,232)"/>
<path d="M0 0 C0.99 0.33 1.98 0.66 3 1 C1.41720023 24.21439659 -18.37458667 47.58411568 -34.8125 62.5 C-43.53125 70 -43.53125 70 -47 70 C-47 70.66 -47 71.32 -47 72 C-47.99 72 -48.98 72 -50 72 C-50 72.66 -50 73.32 -50 74 C-51.9914056 74.38133299 -53.99279077 74.71325582 -56 75 C-57.55906782 73.44093218 -57.12722371 71.93845719 -57.12939453 69.77148438 C-57.13254669 68.87385376 -57.13569885 67.97622314 -57.13894653 67.0513916 C-57.1369223 66.07536987 -57.13489807 65.09934814 -57.1328125 64.09375 C-57.13376923 63.0987146 -57.13472595 62.1036792 -57.13571167 61.07849121 C-57.1363936 58.97013282 -57.13453844 56.86177235 -57.13037109 54.75341797 C-57.12502303 51.51394973 -57.13031567 48.27462015 -57.13671875 45.03515625 C-57.13605797 42.99218719 -57.13477681 40.94921822 -57.1328125 38.90625 C-57.13483673 37.93022827 -57.13686096 36.95420654 -57.13894653 35.9486084 C-57.13579437 35.05097778 -57.13264221 34.15334717 -57.12939453 33.22851562 C-57.12859894 32.43433228 -57.12780334 31.64014893 -57.12698364 30.82189941 C-57 29 -57 29 -56 28 C-53.7553167 27.66989951 -51.5036289 27.38715683 -49.25 27.125 C-30.91142726 24.78558341 -18.37080158 19.96850658 -6 6 C-5.67 5.34 -5.34 4.68 -5 4 C-4.34 4 -3.68 4 -3 4 C-3 3.34 -3 2.68 -3 2 C-2.01 1.34 -1.02 0.68 0 0 Z " fill="#E97463" transform="translate(323,299)"/>
<path d="M0 0 C0 4 0 4 -1.375 5.75 C-3 7 -3 7 -5 7 C-5 7.66 -5 8.32 -5 9 C-7.15390006 10.71475539 -9.30570692 12.30644878 -11.5625 13.875 C-12.17158203 14.30941406 -12.78066406 14.74382812 -13.40820312 15.19140625 C-17.47743717 18.05924739 -21.64460758 20.58967987 -26 23 C-27.10312408 20.24218981 -27.07561442 19.19074165 -25.9609375 16.37890625 C-19.39384148 4.71664952 -13.72014227 -0.73210245 0 0 Z " fill="#E96C5D" transform="translate(290,228)"/>
<path d="M0 0 C0.99 0.33 1.98 0.66 3 1 C2.32855286 10.84789133 -2.66835981 19.5948699 -7.1875 28.1875 C-7.53240479 28.8475 -7.87730957 29.5075 -8.23266602 30.1875 C-10.75469256 34.87734628 -10.75469256 34.87734628 -13 36 C-13 34.68 -13 33.36 -13 32 C-12.34 32 -11.68 32 -11 32 C-10.67 30.02 -10.34 28.04 -10 26 C-9.34 26 -8.68 26 -8 26 C-7.67 23.69 -7.34 21.38 -7 19 C-8.32 19 -9.64 19 -11 19 C-10.34 17.35 -9.68 15.7 -9 14 C-10.65 14.33 -12.3 14.66 -14 15 C-13.60167969 14.54109375 -13.20335937 14.0821875 -12.79296875 13.609375 C-9.39984291 9.68325173 -9.39984291 9.68325173 -6.25 5.5625 C-5.8375 5.046875 -5.425 4.53125 -5 4 C-4.34 4 -3.68 4 -3 4 C-3 3.34 -3 2.68 -3 2 C-2.01 1.34 -1.02 0.68 0 0 Z " fill="#E78172" transform="translate(323,299)"/>
<path d="M0 0 C7.05063 10.57594499 6.20510148 25.41947801 3.92041016 37.46362305 C3.33041064 40.32145462 2.68468033 43.16346722 2 46 C0.68 45.67 -0.64 45.34 -2 45 C-1.625 42.5625 -1.625 42.5625 -1 40 C-0.01 39.505 -0.01 39.505 1 39 C1 38.34 1 37.68 1 37 C0.34 37 -0.32 37 -1 37 C-1.02886338 32.52084672 -1.04675187 28.04171709 -1.0625 23.5625 C-1.07087891 22.28310547 -1.07925781 21.00371094 -1.08789062 19.68554688 C-1.09111328 18.47060547 -1.09433594 17.25566406 -1.09765625 16.00390625 C-1.10289307 14.87799072 -1.10812988 13.7520752 -1.11352539 12.59204102 C-1 10 -1 10 0 9 C0.07179964 7.48071962 0.08392007 5.95832518 0.0625 4.4375 C0.04896484 3.19806641 0.04896484 3.19806641 0.03515625 1.93359375 C0.02355469 1.29550781 0.01195312 0.65742188 0 0 Z " fill="#E9786A" transform="translate(327,246)"/>
<path d="M0 0 C0 0.66 0 1.32 0 2 C-0.66 2.66 -1.32 3.32 -2 4 C-2 4.99 -2 5.98 -2 7 C3.94 6.67 9.88 6.34 16 6 C16 5.34 16 4.68 16 4 C22.27 4 28.54 4 35 4 C35 4.66 35 5.32 35 6 C34.04738281 6.06058594 33.09476562 6.12117188 32.11328125 6.18359375 C30.85902344 6.26738281 29.60476563 6.35117187 28.3125 6.4375 C27.07113281 6.51871094 25.82976562 6.59992188 24.55078125 6.68359375 C21.19474403 6.90316481 21.19474403 6.90316481 18.73950195 7.51147461 C15.32979454 8.1195153 12.08087647 8.12979648 8.6171875 8.1328125 C7.57306198 8.13424759 7.57306198 8.13424759 6.50784302 8.13571167 C5.04380197 8.13638931 3.57975785 8.13456419 2.11572266 8.13037109 C-0.12474282 8.12500062 -2.36500932 8.13033847 -4.60546875 8.13671875 C-6.03125044 8.13605821 -7.45703201 8.13477755 -8.8828125 8.1328125 C-10.17590332 8.13168457 -11.46899414 8.13055664 -12.80126953 8.12939453 C-16 8 -16 8 -19 7 C-18 4 -18 4 -15.99609375 2.83203125 C-10.36526164 0.5882951 -6.05894543 -0.44881077 0 0 Z " fill="#E47763" transform="translate(290,285)"/>
<path d="M0 0 C-0.969375 0.12375 -1.93875 0.2475 -2.9375 0.375 C-4.4534375 0.684375 -4.4534375 0.684375 -6 1 C-6.33 1.66 -6.66 2.32 -7 3 C-12 5 -12 5 -27 5 C-27 18.86 -27 32.72 -27 47 C-25.35 47 -23.7 47 -22 47 C-22 47.66 -22 48.32 -22 49 C-23.9914056 49.38133299 -25.99279077 49.71325582 -28 50 C-29.55906782 48.44093218 -29.12722371 46.93845719 -29.12939453 44.77148438 C-29.13254669 43.87385376 -29.13569885 42.97622314 -29.13894653 42.0513916 C-29.1369223 41.07536987 -29.13489807 40.09934814 -29.1328125 39.09375 C-29.13376923 38.0987146 -29.13472595 37.1036792 -29.13571167 36.07849121 C-29.1363936 33.97013282 -29.13453844 31.86177235 -29.13037109 29.75341797 C-29.12502303 26.51394973 -29.13031567 23.27462015 -29.13671875 20.03515625 C-29.13605797 17.99218719 -29.13477681 15.94921822 -29.1328125 13.90625 C-29.13483673 12.93022827 -29.13686096 11.95420654 -29.13894653 10.9486084 C-29.13579437 10.05097778 -29.13264221 9.15334717 -29.12939453 8.22851562 C-29.12859894 7.43433228 -29.12780334 6.64014893 -29.12698364 5.82189941 C-29 4 -29 4 -28 3 C-25.67249227 2.64671758 -23.33738658 2.34307914 -21 2.0625 C-16.54670891 1.5151416 -12.17289016 0.89346774 -7.8125 -0.1875 C-4.30046008 -0.93596752 -3.21437556 -1.00493781 0 0 Z " fill="#E69B91" transform="translate(295,324)"/>
<path d="M0 0 C0.66 0 1.32 0 2 0 C1.84660156 1.27746094 1.69320312 2.55492187 1.53515625 3.87109375 C0.9731854 8.92883136 0.67798768 13.98071937 0.4375 19.0625 C0.37272461 20.3609082 0.37272461 20.3609082 0.30664062 21.68554688 C0.20198714 23.79024468 0.10064089 25.89510651 0 28 C-0.66 28 -1.32 28 -2 28 C-2 26.68 -2 25.36 -2 24 C-3.32 24.33 -4.64 24.66 -6 25 C-6 18.73 -6 12.46 -6 6 C-5.01 6 -4.02 6 -3 6 C-2.690625 5.195625 -2.38125 4.39125 -2.0625 3.5625 C-1 1 -1 1 0 0 Z " fill="#EB6C60" transform="translate(208,173)"/>
<path d="M0 0 C-0.33 1.32 -0.66 2.64 -1 4 C-0.01 4.33 0.98 4.66 2 5 C1.67 7.31 1.34 9.62 1 12 C0.34 12 -0.32 12 -1 12 C-1.33 13.32 -1.66 14.64 -2 16 C-2.66 16 -3.32 16 -4 16 C-4 15.34 -4 14.68 -4 14 C-4.66 14 -5.32 14 -6 14 C-6 12.68 -6 11.36 -6 10 C-6.66 10 -7.32 10 -8 10 C-8 9.34 -8 8.68 -8 8 C-8.66 8 -9.32 8 -10 8 C-10 8.66 -10 9.32 -10 10 C-12.97 10 -15.94 10 -19 10 C-17.62701584 7.25403168 -16.00160111 6.86910349 -13.25 5.5625 C-10.41639094 4.19622345 -7.74287037 2.84134555 -5.0625 1.1875 C-3 0 -3 0 0 0 Z " fill="#E77D6B" transform="translate(314,313)"/>
<path d="M0 0 C1.670625 0.061875 1.670625 0.061875 3.375 0.125 C3.375 0.785 3.375 1.445 3.375 2.125 C5.685 2.125 7.995 2.125 10.375 2.125 C10.375 2.785 10.375 3.445 10.375 4.125 C7.875 5.75 7.875 5.75 5.375 7.125 C5.375 6.135 5.375 5.145 5.375 4.125 C4.055 4.125 2.735 4.125 1.375 4.125 C1.375 4.785 1.375 5.445 1.375 6.125 C2.035 6.455 2.695 6.785 3.375 7.125 C2.385 8.61 2.385 8.61 1.375 10.125 C2.035 10.125 2.695 10.125 3.375 10.125 C3.375 10.785 3.375 11.445 3.375 12.125 C0.075 12.455 -3.225 12.785 -6.625 13.125 C-6.955 12.135 -7.285 11.145 -7.625 10.125 C-8.615 10.125 -9.605 10.125 -10.625 10.125 C-10.625 9.465 -10.625 8.805 -10.625 8.125 C-9.635 7.795 -8.645 7.465 -7.625 7.125 C-6.90772222 5.47948038 -6.24174772 3.81077711 -5.625 2.125 C-3.625 0.125 -3.625 0.125 0 0 Z " fill="#EB695E" transform="translate(304.625,230.875)"/>
<path d="M0 0 C0 4 0 4 -1.375 5.75 C-3 7 -3 7 -5 7 C-5 7.66 -5 8.32 -5 9 C-6.96875 10.5078125 -6.96875 10.5078125 -9.5 12.125 C-10.3353125 12.66382813 -11.170625 13.20265625 -12.03125 13.7578125 C-12.6809375 14.16773438 -13.330625 14.57765625 -14 15 C-14 13.68 -14 12.36 -14 11 C-12.68 11 -11.36 11 -10 11 C-10 10.34 -10 9.68 -10 9 C-10.99 8.67 -11.98 8.34 -13 8 C-13 7.01 -13 6.02 -13 5 C-13.99 5 -14.98 5 -16 5 C-16 5.66 -16 6.32 -16 7 C-16.99 7 -17.98 7 -19 7 C-19 6.34 -19 5.68 -19 5 C-12.56558074 0.64821886 -7.74810168 -0.72790099 0 0 Z " fill="#E97E6B" transform="translate(290,228)"/>
<path d="M0 0 C3.75508333 1.57189535 6.20927235 3.94478098 9.125 6.75 C17.55165833 14.59157163 25.98595738 18.78283979 37 22 C37 22.33 37 22.66 37 23 C34.69 23 32.38 23 30 23 C30 22.34 30 21.68 30 21 C28.02 21 26.04 21 24 21 C24 20.34 24 19.68 24 19 C21.69 19 19.38 19 17 19 C17 17.68 17 16.36 17 15 C16.0409375 14.8453125 16.0409375 14.8453125 15.0625 14.6875 C14.0415625 14.3471875 14.0415625 14.3471875 13 14 C12.67 13.01 12.34 12.02 12 11 C9.69 11.33 7.38 11.66 5 12 C5 9.69 5 7.38 5 5 C3.68 4.67 2.36 4.34 1 4 C1.309375 4.598125 1.61875 5.19625 1.9375 5.8125 C3 8 3 8 4 11 C3.34 11 2.68 11 2 11 C2 12.98 2 14.96 2 17 C1.67 17 1.34 17 1 17 C0.63917123 14.35491639 0.28604648 11.70920453 -0.0625 9.0625 C-0.16626953 8.30775391 -0.27003906 7.55300781 -0.37695312 6.77539062 C-0.62665638 4.85525872 -0.81790281 2.92771856 -1 1 C-0.67 0.67 -0.34 0.34 0 0 Z " fill="#E08274" transform="translate(183,270)"/>
<path d="M0 0 C0.66 0.33 1.32 0.66 2 1 C1.67 2.98 1.34 4.96 1 7 C1.66 7 2.32 7 3 7 C3 7.66 3 8.32 3 9 C2.195625 9.556875 1.39125 10.11375 0.5625 10.6875 C-2.72579387 13.65498471 -2.75085983 15.68157031 -3 20 C-3.66 19.34 -4.32 18.68 -5 18 C-5.32613281 18.5053125 -5.65226562 19.010625 -5.98828125 19.53125 C-6.64376953 20.50578125 -6.64376953 20.50578125 -7.3125 21.5 C-7.74175781 22.1496875 -8.17101562 22.799375 -8.61328125 23.46875 C-9.07089844 23.9740625 -9.52851563 24.479375 -10 25 C-10.99 25 -11.98 25 -13 25 C-12.48005411 19.70504082 -9.73227975 15.65460692 -7.0625 11.1875 C-6.60681641 10.39923828 -6.15113281 9.61097656 -5.68164062 8.79882812 C-5.24142578 8.05439453 -4.80121094 7.30996094 -4.34765625 6.54296875 C-3.94554932 5.86258545 -3.54344238 5.18220215 -3.12915039 4.48120117 C-2.75653076 3.99240479 -2.38391113 3.5036084 -2 3 C-1.34 3 -0.68 3 0 3 C0 2.01 0 1.02 0 0 Z " fill="#7AA7B5" transform="translate(412,204)"/>
<path d="M0 0 C4.44940915 4.05681423 8.20819985 8.63705744 11 14 C11 15.32 11 16.64 11 18 C7.22007255 20.18110696 3.13504271 21.14094795 -1.0625 22.1875 C-1.78244141 22.37763672 -2.50238281 22.56777344 -3.24414062 22.76367188 C-8.63759921 24.12080026 -8.63759921 24.12080026 -12 23 C-12 22.01 -12 21.02 -12 20 C-6.06 19.67 -0.12 19.34 6 19 C6 18.01 6 17.02 6 16 C6.66 16 7.32 16 8 16 C7.67 14.02 7.34 12.04 7 10 C6.34 10 5.68 10 5 10 C5.33 10.99 5.66 11.98 6 13 C4.68 12.67 3.36 12.34 2 12 C2 11.34 2 10.68 2 10 C1.34 10 0.68 10 0 10 C0 9.34 0 8.68 0 8 C0.66 8 1.32 8 2 8 C2 6.68 2 5.36 2 4 C1.34 3.67 0.68 3.34 0 3 C0 2.01 0 1.02 0 0 Z " fill="#EA8A7E" transform="translate(242,237)"/>
<path d="M0 0 C0.66 0 1.32 0 2 0 C2 1.32 2 2.64 2 4 C2.66 4.33 3.32 4.66 4 5 C4 9 4 9 3 12 C2.34 12 1.68 12 1 12 C1 12.66 1 13.32 1 14 C-1.64 13.67 -4.28 13.34 -7 13 C-6.125 6.25 -6.125 6.25 -5 4 C-4.34 4 -3.68 4 -3 4 C-3 3.34 -3 2.68 -3 2 C-2.01 2 -1.02 2 0 2 C0 1.34 0 0.68 0 0 Z " fill="#7AA7B4" transform="translate(397,231)"/>
<path d="M0 0 C0.66 0 1.32 0 2 0 C2 0.66 2 1.32 2 2 C2.66 2 3.32 2 4 2 C4 3.98 4 5.96 4 8 C5.98 8.66 7.96 9.32 10 10 C10.79953138 13.28696233 11.09658936 14.71023192 10 18 C10.99 18.33 11.98 18.66 13 19 C12.67 20.65 12.34 22.3 12 24 C13.32 24 14.64 24 16 24 C16.33 25.98 16.66 27.96 17 30 C16.01 30 15.02 30 14 30 C0 5.528 0 5.528 0 0 Z " fill="#E57D73" transform="translate(192,309)"/>
<path d="M0 0 C1.67542976 0.28604898 3.34385343 0.61781233 5 1 C5.33 3.31 5.66 5.62 6 8 C5.24074219 8.06058594 4.48148438 8.12117188 3.69921875 8.18359375 C2.20841797 8.30927734 2.20841797 8.30927734 0.6875 8.4375 C-0.29863281 8.51871094 -1.28476563 8.59992188 -2.30078125 8.68359375 C-5.09375599 8.91812559 -5.09375599 8.91812559 -8 10 C-8 9.34 -8 8.68 -8 8 C-7.34 8 -6.68 8 -6 8 C-6 7.34 -6 6.68 -6 6 C-6.66 6 -7.32 6 -8 6 C-8 4.68 -8 3.36 -8 2 C-6.865625 1.855625 -5.73125 1.71125 -4.5625 1.5625 C-1.19222799 1.38828522 -1.19222799 1.38828522 0 0 Z " fill="#E9665C" transform="translate(218,315)"/>
<path d="M0 0 C3.5219721 -0.08004482 6.61981469 -0.04005702 10 1 C10.33 2.65 10.66 4.3 11 6 C11.99 6 12.98 6 14 6 C14 7.32 14 8.64 14 10 C11.80078125 10.69921875 11.80078125 10.69921875 9 11 C6.54296875 9.70703125 6.54296875 9.70703125 4.1875 7.8125 C3.39730469 7.20019531 2.60710937 6.58789062 1.79296875 5.95703125 C0 4 0 4 0 0 Z " fill="#77A6B3" transform="translate(383,103)"/>
<path d="M0 0 C0.99 0.33 1.98 0.66 3 1 C2.45144652 5.571279 1.58255197 9.67435795 0 14 C-0.144375 13.401875 -0.28875 12.80375 -0.4375 12.1875 C-0.8872439 10.43849596 -1.42892341 8.71322977 -2 7 C-2.99 7.33 -3.98 7.66 -5 8 C-5 9.32 -5 10.64 -5 12 C-9.455 13.485 -9.455 13.485 -14 15 C-13.071875 13.9275 -12.14375 12.855 -11.1875 11.75 C-9.44361555 9.72709404 -7.80913318 7.73414979 -6.25 5.5625 C-5.8375 5.046875 -5.425 4.53125 -5 4 C-4.34 4 -3.68 4 -3 4 C-3 3.34 -3 2.68 -3 2 C-2.01 1.34 -1.02 0.68 0 0 Z " fill="#E5998C" transform="translate(323,299)"/>
<path d="M0 0 C6.27 0 12.54 0 19 0 C19 0.66 19 1.32 19 2 C18.04738281 2.06058594 17.09476562 2.12117188 16.11328125 2.18359375 C14.85902344 2.26738281 13.60476563 2.35117187 12.3125 2.4375 C10.45044922 2.55931641 10.45044922 2.55931641 8.55078125 2.68359375 C5.19552561 2.90217518 5.19552561 2.90217518 2.74609375 3.51367188 C-0.70285673 4.12447463 -3.98561966 4.11161108 -7.48828125 4.09765625 C-8.19147995 4.0962413 -8.89467865 4.09482635 -9.6191864 4.09336853 C-11.85033544 4.08780109 -14.08138164 4.07525475 -16.3125 4.0625 C-17.83137875 4.05748079 -19.35025909 4.05291862 -20.86914062 4.04882812 C-24.57946012 4.03784236 -28.28972001 4.02060034 -32 4 C-32 3.67 -32 3.34 -32 3 C-21.3051534 2.03711992 -10.72867997 1.89052367 0 2 C0 1.34 0 0.68 0 0 Z " fill="#E8988A" transform="translate(306,289)"/>
<path d="M0 0 C7.11780896 10.67671343 5.94290686 25.88816931 4 38 C3.67 38 3.34 38 3 38 C2.67 30.08 2.34 22.16 2 14 C1.01 14 0.02 14 -1 14 C-0.9278125 13.32453125 -0.855625 12.6490625 -0.78125 11.953125 C-0.6884375 11.06109375 -0.595625 10.1690625 -0.5 9.25 C-0.4071875 8.36828125 -0.314375 7.4865625 -0.21875 6.578125 C0.05636313 3.76695165 0.05636313 3.76695165 0 0 Z " fill="#E79D90" transform="translate(327,246)"/>
<path d="M0 0 C1.65 0 3.3 0 5 0 C6.18695418 2.37390836 6.12075833 3.80244951 6.11352539 6.44970703 C6.11344986 7.37051056 6.11337433 8.29131409 6.11329651 9.24002075 C6.10813522 10.23589203 6.10297394 11.23176331 6.09765625 12.2578125 C6.0962413 13.27600067 6.09482635 14.29418884 6.09336853 15.3432312 C6.087759 18.60385035 6.07520488 21.86440151 6.0625 25.125 C6.05748623 27.33203026 6.05292311 29.53906159 6.04882812 31.74609375 C6.03778648 37.16408581 6.02103905 42.58203805 6 48 C-0.58928571 47.08035714 -0.58928571 47.08035714 -3 44 C-1.68 44 -0.36 44 1 44 C1 44.66 1 45.32 1 46 C2.32 46 3.64 46 5 46 C5 32.14 5 18.28 5 4 C4.34 4 3.68 4 3 4 C3 3.34 3 2.68 3 2 C2.01 2 1.02 2 0 2 C0 1.34 0 0.68 0 0 Z " fill="#EDA89E" transform="translate(242,325)"/>
<path d="M0 0 C0.66 0.33 1.32 0.66 2 1 C0.92807816 2.3218362 -0.15802695 3.63217927 -1.25 4.9375 C-1.85328125 5.66839844 -2.4565625 6.39929688 -3.078125 7.15234375 C-5.10741134 9.10326334 -6.254407 9.61731779 -9 10 C-9.33 11.32 -9.66 12.64 -10 14 C-7.36 14 -4.72 14 -2 14 C-2 14.66 -2 15.32 -2 16 C-6.28330261 16.91785056 -9.77793534 17.34338421 -14 16 C-15.375 13.4375 -15.375 13.4375 -16 11 C-14.68 10.67 -13.36 10.34 -12 10 C-12 9.34 -12 8.68 -12 8 C-10.700625 7.4121875 -10.700625 7.4121875 -9.375 6.8125 C-5.74128495 4.86106043 -3.08299117 2.71596841 0 0 Z " fill="#EA7B69" transform="translate(284,243)"/>
<path d="M0 0 C1.65 0 3.3 0 5 0 C4.67 1.32 4.34 2.64 4 4 C5.32 4 6.64 4 8 4 C4.875 10.25 4.875 10.25 0.4375 12.125 C-0.38878906 12.47820312 -1.21507812 12.83140625 -2.06640625 13.1953125 C-2.70449219 13.46085938 -3.34257812 13.72640625 -4 14 C-4 13.34 -4 12.68 -4 12 C-3.34 12 -2.68 12 -2 12 C-1.855625 10.7625 -1.71125 9.525 -1.5625 8.25 C-1.21311498 5.43495501 -0.79620634 2.7298503 0 0 Z " fill="#E98775" transform="translate(300,203)"/>
<path d="M0 0 C6.75 -0.125 6.75 -0.125 9 1 C9.99 1.33 10.98 1.66 12 2 C11.34 3.98 10.68 5.96 10 8 C4.93001981 7.34580901 0.58009223 5.1453591 -4 3 C-2.68 2.67 -1.36 2.34 0 2 C0 1.34 0 0.68 0 0 Z " fill="#E78170" transform="translate(208,277)"/>
<path d="M0 0 C1.98 0 3.96 0 6 0 C4.25 5.75 4.25 5.75 2 8 C2 8.66 2 9.32 2 10 C1.34 10 0.68 10 0 10 C-0.33 11.65 -0.66 13.3 -1 15 C-1.99 15.33 -2.98 15.66 -4 16 C-3.6083965 10.04492601 -2.62875405 5.37180176 0 0 Z " fill="#7EAAB8" transform="translate(12,123)"/>
<path d="M0 0 C3.10133197 0.66898603 6.19869745 1.22426333 9.33203125 1.71875 C9.33203125 2.04875 9.33203125 2.37875 9.33203125 2.71875 C4.38203125 2.71875 -0.56796875 2.71875 -5.66796875 2.71875 C-5.66796875 2.05875 -5.66796875 1.39875 -5.66796875 0.71875 C-7.97796875 0.71875 -10.28796875 0.71875 -12.66796875 0.71875 C-12.66796875 0.38875 -12.66796875 0.05875 -12.66796875 -0.28125 C-24.05296875 -0.77625 -24.05296875 -0.77625 -35.66796875 -1.28125 C-35.66796875 -1.61125 -35.66796875 -1.94125 -35.66796875 -2.28125 C-23.00181843 -3.29143377 -12.46956172 -2.79900375 0 0 Z " fill="#E0A79F" transform="translate(266.66796875,296.28125)"/>
<path d="M0 0 C1.65322266 0.01740234 1.65322266 0.01740234 3.33984375 0.03515625 C4.99693359 0.04869141 4.99693359 0.04869141 6.6875 0.0625 C7.54214844 0.07410156 8.39679688 0.08570313 9.27734375 0.09765625 C0.64514988 4.66418746 -8.4050928 4.37983526 -17.97265625 4.28515625 C-19.225625 4.28451172 -20.47859375 4.28386719 -21.76953125 4.28320312 C-31.82907988 4.23483991 -31.82907988 4.23483991 -36.72265625 3.09765625 C-36.72265625 2.76765625 -36.72265625 2.43765625 -36.72265625 2.09765625 C-35.97169678 2.10289307 -35.2207373 2.10812988 -34.44702148 2.11352539 C-31.01807504 2.13441586 -27.58914204 2.1473547 -24.16015625 2.16015625 C-22.97873047 2.16853516 -21.79730469 2.17691406 -20.58007812 2.18554688 C-12.1002023 2.2247761 -12.1002023 2.2247761 -3.72265625 1.09765625 C-2.72265625 0.09765625 -2.72265625 0.09765625 0 0 Z " fill="#F0A198" transform="translate(261.72265625,284.90234375)"/>
<path d="M0 0 C1.98 0 3.96 0 6 0 C6.33 3.3 6.66 6.6 7 10 C5.68 10 4.36 10 3 10 C3 9.34 3 8.68 3 8 C1.35 7.67 -0.3 7.34 -2 7 C-2 5.35 -2 3.7 -2 2 C-1.34 2 -0.68 2 0 2 C0 1.34 0 0.68 0 0 Z " fill="#E6665A" transform="translate(240,361)"/>
<path d="M0 0 C1.65 0 3.3 0 5 0 C4.34 1.65 3.68 3.3 3 5 C3.99 5.33 4.98 5.66 6 6 C7 9 7 9 6.0625 11.1875 C5.711875 11.785625 5.36125 12.38375 5 13 C3.87105124 12.06725891 2.74699124 11.12859878 1.625 10.1875 C0.99851563 9.66542969 0.37203125 9.14335937 -0.2734375 8.60546875 C-2 7 -2 7 -4 4 C-2.68 4 -1.36 4 0 4 C0 2.68 0 1.36 0 0 Z " fill="#94B5C1" transform="translate(220,471)"/>
<path d="M0 0 C0 0.66 0 1.32 0 2 C0.66 2.66 1.32 3.32 2 4 C0.8553125 4.6496875 0.8553125 4.6496875 -0.3125 5.3125 C-5.08484009 8.30908564 -6.41921861 10.52806442 -8 16 C-8.33 16 -8.66 16 -9 16 C-9.44223108 7.30278884 -9.44223108 7.30278884 -6 3 C-2.5862069 0 -2.5862069 0 0 0 Z " fill="#7AA5B2" transform="translate(297,74)"/>
<path d="M0 0 C0.556875 0.38671875 1.11375 0.7734375 1.6875 1.171875 C9.480826 6.49029342 16.97458726 10.242235 26 13 C26 13.33 26 13.66 26 14 C23.69 14 21.38 14 19 14 C19 13.34 19 12.68 19 12 C17.02 12 15.04 12 13 12 C13 11.34 13 10.68 13 10 C10.69 10 8.38 10 6 10 C6 8.68 6 7.36 6 6 C5.071875 5.9071875 5.071875 5.9071875 4.125 5.8125 C3.073125 5.4103125 3.073125 5.4103125 2 5 C0.8671875 2.44921875 0.8671875 2.44921875 0 0 Z " fill="#E39588" transform="translate(194,279)"/>
<path d="M0 0 C0.33 0.66 0.66 1.32 1 2 C0.67 2.66 0.34 3.32 0 4 C-2.64 4 -5.28 4 -8 4 C-8 3.34 -8 2.68 -8 2 C-9.65 2 -11.3 2 -13 2 C-12.67 3.65 -12.34 5.3 -12 7 C-12.99 7.495 -12.99 7.495 -14 8 C-14 5.36 -14 2.72 -14 0 C-8.97278473 -1.13112344 -5.01462597 -0.93493027 0 0 Z " fill="#E76D5C" transform="translate(282,329)"/>
<path d="M0 0 C2.88420057 5.76840115 3.14302432 11.54110903 1.1015625 17.71875 C0.14366629 19.86552448 -0.8625423 21.94343585 -2 24 C-2.33 24 -2.66 24 -3 24 C-3 22.02 -3 20.04 -3 18 C-3.66 17.67 -4.32 17.34 -5 17 C-3.68 16.67 -2.36 16.34 -1 16 C-0.67 10.72 -0.34 5.44 0 0 Z " fill="#E79089" transform="translate(251,183)"/>
<path d="M0 0 C4.29 0 8.58 0 13 0 C13 0.66 13 1.32 13 2 C12.34 2 11.68 2 11 2 C11 2.66 11 3.32 11 4 C10.34 4 9.68 4 9 4 C9 4.66 9 5.32 9 6 C9.66 6 10.32 6 11 6 C11 6.66 11 7.32 11 8 C9.35 7.67 7.7 7.34 6 7 C5.67 5.35 5.34 3.7 5 2 C3.35 2 1.7 2 0 2 C0 1.34 0 0.68 0 0 Z " fill="#EA7361" transform="translate(197,271)"/>
<path d="M0 0 C4.48599743 1.25190626 7.59347128 2.79385533 11 6 C11 6.66 11 7.32 11 8 C9.88625 7.95875 8.7725 7.9175 7.625 7.875 C3.95633975 7.58878141 3.95633975 7.58878141 2 10 C-0.625 9.625 -0.625 9.625 -3 9 C-2.67 8.01 -2.34 7.02 -2 6 C-0.02 6 1.96 6 4 6 C3.73323796 4.01508358 3.73323796 4.01508358 3 2 C2.01 1.67 1.02 1.34 0 1 C0 0.67 0 0.34 0 0 Z " fill="#E57B69" transform="translate(295,165)"/>
<path d="M0 0 C0.33 2.31 0.66 4.62 1 7 C-2.65456815 7.75241109 -6.31733897 8.40049704 -10 9 C-8.92598892 6.08482708 -8.22189824 4.22189824 -6 2 C-1.44444444 0 -1.44444444 0 0 0 Z " fill="#7FACB5" transform="translate(393,332)"/>
<path d="M0 0 C-0.33 1.65 -0.66 3.3 -1 5 C-1.69311279 4.67854004 -2.38622559 4.35708008 -3.1003418 4.02587891 C-6.3391539 2.88000971 -8.96506423 2.68345789 -12.39453125 2.5859375 C-13.59658203 2.54726563 -14.79863281 2.50859375 -16.03710938 2.46875 C-17.90592773 2.42234375 -17.90592773 2.42234375 -19.8125 2.375 C-21.07771484 2.33632813 -22.34292969 2.29765625 -23.64648438 2.2578125 C-26.76417851 2.16369343 -29.88186914 2.07805639 -33 2 C-33 1.67 -33 1.34 -33 1 C-28.62506889 0.8314921 -24.25004517 0.66551807 -19.875 0.5 C-18.6375 0.45230469 -17.4 0.40460938 -16.125 0.35546875 C-14.92617188 0.31035156 -13.72734375 0.26523437 -12.4921875 0.21875 C-10.84259033 0.1559082 -10.84259033 0.1559082 -9.15966797 0.09179688 C-6.10431671 0.00303068 -3.05643332 -0.01610769 0 0 Z " fill="#F0A295" transform="translate(312,298)"/>
<path d="M0 0 C0.33 0.66 0.66 1.32 1 2 C1.66 2 2.32 2 3 2 C3 2.66 3 3.32 3 4 C3.99 4 4.98 4 6 4 C5.67447917 5.98567708 5.34895833 7.97135417 5.0234375 9.95703125 C4.80422152 12.31755824 4.80422152 12.31755824 7 15 C7.125 18.1875 7.125 18.1875 7 21 C4.76872275 17.65308412 3.61467238 14.28388372 2.375 10.5 C2.03082031 9.48486328 2.03082031 9.48486328 1.6796875 8.44921875 C0.70703083 5.51387986 0 3.11291919 0 0 Z " fill="#E59184" transform="translate(185,287)"/>
<path d="M0 0 C0.66 0.33 1.32 0.66 2 1 C1.34 1.66 0.68 2.32 0 3 C-0.70710678 4.64991582 -1.37943989 6.31562256 -2 8 C-2.99 8 -3.98 8 -5 8 C-5 8.66 -5 9.32 -5 10 C-7 12 -7 12 -10.125 12.125 C-11.548125 12.063125 -11.548125 12.063125 -13 12 C-8.87675353 7.74790208 -4.48717034 3.86364295 0 0 Z " fill="#E38C7F" transform="translate(299,231)"/>
<path d="M0 0 C-1.22976563 0.05607422 -1.22976563 0.05607422 -2.484375 0.11328125 C-3.56203125 0.17902344 -4.6396875 0.24476563 -5.75 0.3125 C-6.81734375 0.37050781 -7.8846875 0.42851562 -8.984375 0.48828125 C-12.24693174 1.04190163 -13.4860411 1.9547453 -16 4 C-19.75 4.6875 -19.75 4.6875 -23 5 C-17.3831901 -1.4678417 -7.69875581 -5.13250387 0 0 Z " fill="#E39D98" transform="translate(293,165)"/>
<path d="M0 0 C1.15628906 -0.01417969 2.31257813 -0.02835938 3.50390625 -0.04296875 C6.4375 0.1875 6.4375 0.1875 8.4375 2.1875 C2.8275 2.1875 -2.7825 2.1875 -8.5625 2.1875 C-8.8925 3.5075 -9.2225 4.8275 -9.5625 6.1875 C-12.30427497 7.35421276 -14.56817607 8.1875 -17.5625 8.1875 C-17.5625 7.5275 -17.5625 6.8675 -17.5625 6.1875 C-15.91796875 4.93359375 -15.91796875 4.93359375 -13.75 3.625 C-13.04230469 3.19058594 -12.33460938 2.75617188 -11.60546875 2.30859375 C-7.67396876 0.15115494 -4.41737262 0.02467806 0 0 Z " fill="#E79B90" transform="translate(225.5625,162.8125)"/>
<path d="M0 0 C0.66 0 1.32 0 2 0 C0.125 6.875 0.125 6.875 -1 8 C-2.66617115 8.04063832 -4.33388095 8.042721 -6 8 C-6.66 9.65 -7.32 11.3 -8 13 C-8.66 13 -9.32 13 -10 13 C-8.25 6.25 -8.25 6.25 -6 4 C-3.375 3.875 -3.375 3.875 -1 4 C-0.67 2.68 -0.34 1.36 0 0 Z " fill="#82ACB7" transform="translate(48,77)"/>
<path d="M0 0 C0.66 0.33 1.32 0.66 2 1 C-1.75 5.875 -1.75 5.875 -4 7 C-4.66 6.67 -5.32 6.34 -6 6 C-6.1546875 6.928125 -6.1546875 6.928125 -6.3125 7.875 C-7 10 -7 10 -10 12 C-12.6875 12.125 -12.6875 12.125 -15 12 C-10.58990583 7.14889642 -5.41995647 3.651893 0 0 Z " fill="#8FB7BB" transform="translate(331,371)"/>
<path d="M0 0 C7.57817799 0.40597382 12.48096324 4.12028429 18 9 C16.68 9.33 15.36 9.66 14 10 C14 9.34 14 8.68 14 8 C13.34 8 12.68 8 12 8 C12 7.34 12 6.68 12 6 C11.01 6 10.02 6 9 6 C7.3125 4.5 7.3125 4.5 6 3 C5.67 3.99 5.34 4.98 5 6 C4.67 5.34 4.34 4.68 4 4 C3.34 4 2.68 4 2 4 C2 3.34 2 2.68 2 2 C1.01 1.67 0.02 1.34 -1 1 C-0.67 0.67 -0.34 0.34 0 0 Z " fill="#E4998E" transform="translate(224,227)"/>
<path d="M0 0 C0 3.2388234 -0.19064577 4.36821203 -2 7 C-5.23032218 8.92444725 -7.21823079 10 -11 10 C-11 8.35 -11 6.7 -11 5 C-10.45730469 4.80664062 -9.91460937 4.61328125 -9.35546875 4.4140625 C-8.64003906 4.15367187 -7.92460937 3.89328125 -7.1875 3.625 C-6.47980469 3.36976563 -5.77210938 3.11453125 -5.04296875 2.8515625 C-2.75226641 1.9734231 -2.75226641 1.9734231 0 0 Z " fill="#E96759" transform="translate(281,165)"/>
<path d="M0 0 C0.66 0.33 1.32 0.66 2 1 C1.54625 1.4125 1.0925 1.825 0.625 2.25 C-1.05950374 4.06408095 -1.99265971 5.75285627 -3 8 C-4.65 7.67 -6.3 7.34 -8 7 C-8.66 8.65 -9.32 10.3 -10 12 C-11.65 11.67 -13.3 11.34 -15 11 C-12.31935789 8.01837352 -9.15182515 6.00281004 -5.8125 3.8125 C-4.72582031 3.09707031 -3.63914062 2.38164062 -2.51953125 1.64453125 C-1.68808594 1.10183594 -0.85664063 0.55914062 0 0 Z " fill="#90B6BE" transform="translate(356,355)"/>
<path d="M0 0 C3.3 0 6.6 0 10 0 C10 4 10 4 8.625 5.75 C7 7 7 7 5 7 C5 7.66 5 8.32 5 9 C4.34 9 3.68 9 3 9 C3.33 6.69 3.66 4.38 4 2 C2.68 1.34 1.36 0.68 0 0 Z " fill="#E7A092" transform="translate(280,228)"/>
<path d="M0 0 C0.66 1.32 1.32 2.64 2 4 C3.98 4 5.96 4 8 4 C8.33 5.65 8.66 7.3 9 9 C5.98968256 9.93423645 5.13349732 10.04449911 2 9 C2 8.01 2 7.02 2 6 C1.34 6 0.68 6 0 6 C0 4.02 0 2.04 0 0 Z " fill="#E76256" transform="translate(264,197)"/>
<path d="M0 0 C0.99 0.33 1.98 0.66 3 1 C2.01 2.485 2.01 2.485 1 4 C0.34 4 -0.32 4 -1 4 C-1.33 4.99 -1.66 5.98 -2 7 C-3.7421875 8.75390625 -3.7421875 8.75390625 -5.875 10.5625 C-6.57367188 11.16191406 -7.27234375 11.76132812 -7.9921875 12.37890625 C-10 14 -10 14 -13 16 C-13 14.68 -13 13.36 -13 12 C-12.01 12 -11.02 12 -10 12 C-10 11.34 -10 10.68 -10 10 C-9.34 10 -8.68 10 -8 10 C-8 9.34 -8 8.68 -8 8 C-7.34 8 -6.68 8 -6 8 C-6 7.34 -6 6.68 -6 6 C-5.34 6 -4.68 6 -4 6 C-4 5.34 -4 4.68 -4 4 C-3.34 4 -2.68 4 -2 4 C-2 3.34 -2 2.68 -2 2 C-1.34 2 -0.68 2 0 2 C0 1.34 0 0.68 0 0 Z " fill="#9DB6BB" transform="translate(399,377)"/>
<path d="M0 0 C0.66 0 1.32 0 2 0 C1.34 1.65 0.68 3.3 0 5 C0.66 5 1.32 5 2 5 C2 5.66 2 6.32 2 7 C2.99 7 3.98 7 5 7 C4.34 8.65 3.68 10.3 3 12 C1.85073734 11.04578192 0.70569459 10.08647955 -0.4375 9.125 C-1.07558594 8.59132813 -1.71367188 8.05765625 -2.37109375 7.5078125 C-4 6 -4 6 -5 4 C-4.34 4 -3.68 4 -3 4 C-2.67 3.34 -2.34 2.68 -2 2 C-1.34 2 -0.68 2 0 2 C0 1.34 0 0.68 0 0 Z " fill="#93B6C1" transform="translate(111,366)"/>
<path d="M0 0 C3.3 0 6.6 0 10 0 C10 0.66 10 1.32 10 2 C9.01 2 8.02 2 7 2 C6.67 3.32 6.34 4.64 6 6 C4.02 6 2.04 6 0 6 C0 4.02 0 2.04 0 0 Z " fill="#DF6756" transform="translate(268,365)"/>
<path d="M0 0 C0.66 0.33 1.32 0.66 2 1 C2.625 3.5625 2.625 3.5625 3 6 C5.31 6 7.62 6 10 6 C10.33 6.66 10.66 7.32 11 8 C5.147205 7.48517081 -0.3297637 6.54642808 -6 5 C-5.195625 4.360625 -4.39125 3.72125 -3.5625 3.0625 C-1.7249496 1.59396498 -1.7249496 1.59396498 0 0 Z " fill="#E6948A" transform="translate(239,313)"/>
<path d="M0 0 C0.66 0.33 1.32 0.66 2 1 C0.7508258 4.45925163 -0.67527795 7.14693203 -3 10 C-3.99 9.67 -4.98 9.34 -6 9 C-6 7.02 -6 5.04 -6 3 C-5.195625 2.690625 -4.39125 2.38125 -3.5625 2.0625 C-1.10919595 1.23664655 -1.10919595 1.23664655 0 0 Z " fill="#92B7BD" transform="translate(267,133)"/>
<path d="M0 0 C-2.93479598 0.86458312 -5.87221519 1.71697187 -8.8125 2.5625 C-9.64587891 2.80935547 -10.47925781 3.05621094 -11.33789062 3.31054688 C-12.14033203 3.53935547 -12.94277344 3.76816406 -13.76953125 4.00390625 C-14.50792236 4.21861572 -15.24631348 4.4333252 -16.00708008 4.65454102 C-18 5 -18 5 -21 4 C-21 3.01 -21 2.02 -21 1 C-18.06328811 0.6377756 -15.12596806 0.28491613 -12.1875 -0.0625 C-10.93743164 -0.2181543 -10.93743164 -0.2181543 -9.66210938 -0.37695312 C-8.45844727 -0.51713867 -8.45844727 -0.51713867 -7.23046875 -0.66015625 C-6.49207764 -0.74918213 -5.75368652 -0.83820801 -4.99291992 -0.92993164 C-3 -1 -3 -1 0 0 Z " fill="#EAA098" transform="translate(251,256)"/>
<path d="M0 0 C4.51290803 3.33562767 6.68206814 5.33289301 8 11 C7.01 11 6.02 11 5 11 C5 10.01 5 9.02 5 8 C2.03 8 -0.94 8 -4 8 C-3.67 7.34 -3.34 6.68 -3 6 C-1.35 6 0.3 6 2 6 C2.33 5.34 2.66 4.68 3 4 C2.01 4 1.02 4 0 4 C0 2.68 0 1.36 0 0 Z " fill="#E58D83" transform="translate(319,235)"/>
<path d="M0 0 C0.66 0 1.32 0 2 0 C0.8905928 3.48670834 -0.26337666 6.77484237 -2 10 C-3.65 10 -5.3 10 -7 10 C-7 9.34 -7 8.68 -7 8 C-6.34 8 -5.68 8 -5 8 C-5 6.35 -5 4.7 -5 3 C-4.34 2.67 -3.68 2.34 -3 2 C-3 2.66 -3 3.32 -3 4 C-2.34 4 -1.68 4 -1 4 C-0.67 2.68 -0.34 1.36 0 0 Z " fill="#7BA6B3" transform="translate(25,107)"/>
<path d="M0 0 C0.99 0.33 1.98 0.66 3 1 C0.88094537 3.17277714 -1.24472878 5.33826908 -3.375 7.5 C-3.97828125 8.12003906 -4.5815625 8.74007813 -5.203125 9.37890625 C-5.78320312 9.96542969 -6.36328125 10.55195313 -6.9609375 11.15625 C-7.49509277 11.70087891 -8.02924805 12.24550781 -8.57958984 12.80664062 C-10 14 -10 14 -12 14 C-11.42655063 11.13275314 -11.1385485 10.1385485 -9 8 C-8.01 8 -7.02 8 -6 8 C-6 7.34 -6 6.68 -6 6 C-5.34 6 -4.68 6 -4 6 C-4 5.34 -4 4.68 -4 4 C-3.34 4 -2.68 4 -2 4 C-1.34 2.68 -0.68 1.36 0 0 Z " fill="#A7BEC5" transform="translate(302,471)"/>
<path d="M0 0 C0.86625 0.3403125 0.86625 0.3403125 1.75 0.6875 C1.75 2.6875 1.75 4.6875 1.75 6.6875 C-0.56 6.3575 -2.87 6.0275 -5.25 5.6875 C-5.58 4.6975 -5.91 3.7075 -6.25 2.6875 C-2.80384615 -0.38942308 -2.80384615 -0.38942308 0 0 Z " fill="#92B8C0" transform="translate(367.25,349.3125)"/>
<path d="M0 0 C0 0.66 0 1.32 0 2 C-1.32 2 -2.64 2 -4 2 C-4.33 3.32 -4.66 4.64 -5 6 C-9.455 6.495 -9.455 6.495 -14 7 C-13 4 -13 4 -10.8203125 2.83203125 C-9.93085938 2.49558594 -9.04140625 2.15914063 -8.125 1.8125 C-7.24070312 1.46832031 -6.35640625 1.12414062 -5.4453125 0.76953125 C-3 0 -3 0 0 0 Z " fill="#E5948B" transform="translate(285,285)"/>
<path d="M0 0 C6.75479274 -0.7342166 11.18524285 1.72408048 17 5 C15.68 5.33 14.36 5.66 13 6 C13 5.34 13 4.68 13 4 C10.69 4 8.38 4 6 4 C6 3.34 6 2.68 6 2 C3.69 2 1.38 2 -1 2 C-0.67 1.34 -0.34 0.68 0 0 Z " fill="#E3988E" transform="translate(302,229)"/>
<path d="M0 0 C0.66 0 1.32 0 2 0 C2 0.99 2 1.98 2 3 C4.31 3 6.62 3 9 3 C8.67 5.31 8.34 7.62 8 10 C7.01 10 6.02 10 5 10 C3.61328125 8.3203125 3.61328125 8.3203125 2.3125 6.125 C1.87550781 5.40570313 1.43851562 4.68640625 0.98828125 3.9453125 C0 2 0 2 0 0 Z " fill="#DD7766" transform="translate(264,203)"/>
<path d="M0 0 C2.64 0 5.28 0 8 0 C8 2 8 2 6 4.125 C5.34 4.74375 4.68 5.3625 4 6 C1.69 5.34 -0.62 4.68 -3 4 C-2.67 3.34 -2.34 2.68 -2 2 C-1.34 2 -0.68 2 0 2 C0 1.34 0 0.68 0 0 Z " fill="#8FB3C2" transform="translate(311,457)"/>
<path d="M0 0 C1.09566959 3.28700877 1.45243698 5.01029411 0 8.1875 C-0.495 9.0846875 -0.495 9.0846875 -1 10 C-2.16964602 8.8572081 -3.33564556 7.71068285 -4.5 6.5625 C-5.1496875 5.92441406 -5.799375 5.28632813 -6.46875 4.62890625 C-8 3 -8 3 -8 2 C-5.66666667 2 -3.33333333 2 -1 2 C-0.67 1.34 -0.34 0.68 0 0 Z " fill="#94B4C0" transform="translate(161,413)"/>
<path d="M0 0 C3.15330554 0.60694155 5.18888867 1.6416665 7.75 3.5625 C8.67039063 4.24505859 8.67039063 4.24505859 9.609375 4.94140625 C10.29773438 5.46541016 10.29773438 5.46541016 11 6 C10.67 6.66 10.34 7.32 10 8 C9.34 8 8.68 8 8 8 C8 7.01 8 6.02 8 5 C7.34 5 6.68 5 6 5 C5.67 5.66 5.34 6.32 5 7 C4.34 6.67 3.68 6.34 3 6 C3 5.34 3 4.68 3 4 C2.34 4 1.68 4 1 4 C0.67 2.68 0.34 1.36 0 0 Z " fill="#EA8E86" transform="translate(234,165)"/>
<path d="M0 0 C2.98479194 4.47718792 4 8.63824093 4 14 C3.34 14 2.68 14 2 14 C1.67 13.34 1.34 12.68 1 12 C0.01 12.495 0.01 12.495 -1 13 C-0.125 9.125 -0.125 9.125 1 8 C0.34 7.01 -0.32 6.02 -1 5 C-0.625 2.3125 -0.625 2.3125 0 0 Z " fill="#A0BBC0" transform="translate(509,135)"/>
<path d="M0 0 C0.66 0 1.32 0 2 0 C1.50971384 4.24426822 0.44544451 6.01792037 -2.8125 8.75 C-3.49957031 9.34296875 -4.18664062 9.9359375 -4.89453125 10.546875 C-6.9866741 11.99080291 -8.5161036 12.57578399 -11 13 C-10 10 -10 10 -8 8.9375 C-7.34 8.628125 -6.68 8.31875 -6 8 C-5.67 7.34 -5.34 6.68 -5 6 C-4.01 6 -3.02 6 -2 6 C-2 5.34 -2 4.68 -2 4 C-1.34 4 -0.68 4 0 4 C0 2.68 0 1.36 0 0 Z " fill="#A4BCC2" transform="translate(169,315)"/>
<path d="M0 0 C1.37195574 1.29355827 2.71182656 2.62298702 4 4 C0.87709365 3.51421457 -1.99580359 3.0013988 -5 2 C-5 2.66 -5 3.32 -5 4 C-4.01 4.33 -3.02 4.66 -2 5 C-2.99 5.66 -3.98 6.32 -5 7 C-8 2.25 -8 2.25 -8 0 C-4.71303767 -0.79953138 -3.28976808 -1.09658936 0 0 Z " fill="#E59187" transform="translate(229,313)"/>
<path d="M0 0 C1.32 0 2.64 0 4 0 C4.33 1.32 4.66 2.64 5 4 C6.65 4 8.3 4 10 4 C10.66 5.98 11.32 7.96 12 10 C7.21626007 8.3598606 3.29276103 6.21616176 0.6875 1.75 C0.3471875 0.88375 0.3471875 0.88375 0 0 Z " fill="#E7938A" transform="translate(192,269)"/>
<path d="M0 0 C0.04125 0.61875 0.0825 1.2375 0.125 1.875 C0.41375 2.57625 0.7025 3.2775 1 4 C3.99615946 5.3045656 3.99615946 5.3045656 7 6 C7 8.31 7 10.62 7 13 C3.74085049 9.91702073 0.93446327 7.0838669 -1 3 C-0.67 2.01 -0.34 1.02 0 0 Z " fill="#E78E85" transform="translate(203,199)"/>
<path d="M0 0 C2.31 0 4.62 0 7 0 C8.32 2.64 9.64 5.28 11 8 C6.40378078 6.5129879 3.53027653 4.20187872 0 1 C0 0.67 0 0.34 0 0 Z " fill="#E48980" transform="translate(225,359)"/>
<path d="M0 0 C0.66 0 1.32 0 2 0 C2 1.98 2 3.96 2 6 C2.66 6 3.32 6 4 6 C4.33 6.99 4.66 7.98 5 9 C3.68 9.33 2.36 9.66 1 10 C0.67 8.68 0.34 7.36 0 6 C-0.66 6 -1.32 6 -2 6 C-2 4.68 -2 3.36 -2 2 C-1.34 2 -0.68 2 0 2 C0 1.34 0 0.68 0 0 Z " fill="#EA685F" transform="translate(324,277)"/>
<path d="M0 0 C0.99 0.33 1.98 0.66 3 1 C3 1.99 3 2.98 3 4 C2.34 4 1.68 4 1 4 C1.309375 4.598125 1.61875 5.19625 1.9375 5.8125 C3 8 3 8 4 11 C3.34 11 2.68 11 2 11 C2 12.98 2 14.96 2 17 C1.67 17 1.34 17 1 17 C0.63917123 14.35491639 0.28604648 11.70920453 -0.0625 9.0625 C-0.16626953 8.30775391 -0.27003906 7.55300781 -0.37695312 6.77539062 C-0.62665638 4.85525872 -0.81790281 2.92771856 -1 1 C-0.67 0.67 -0.34 0.34 0 0 Z " fill="#E69D96" transform="translate(183,270)"/>
<path d="M0 0 C0.33 0 0.66 0 1 0 C1 1.65 1 3.3 1 5 C0.01 5 -0.98 5 -2 5 C-1.896875 5.721875 -1.79375 6.44375 -1.6875 7.1875 C-2.12449065 11.12041589 -4.10082197 12.46321923 -7 15 C-6.68863537 8.92838975 -3.64625533 4.66140596 0 0 Z " fill="#E9978C" transform="translate(269,170)"/>
<path d="M0 0 C2 3 2 3 2 5 C1.01 4.67 0.02 4.34 -1 4 C-0.67 2.68 -0.34 1.36 0 0 Z M-1 5 C-0.01 5.33 0.98 5.66 2 6 C1.67 7.98 1.34 9.96 1 12 C0.34 12 -0.32 12 -1 12 C-1 11.34 -1 10.68 -1 10 C-1.66 10 -2.32 10 -3 10 C-3 8.68 -3 7.36 -3 6 C-2.34 5.67 -1.68 5.34 -1 5 Z " fill="#7BA8B7" transform="translate(243,113)"/>
<path d="M0 0 C0 1.32 0 2.64 0 4 C-0.66 4 -1.32 4 -2 4 C-2 4.66 -2 5.32 -2 6 C-4.97 6 -7.94 6 -11 6 C-9.73083275 3.46166551 -8.58375191 3.10599099 -6.0625 1.875 C-5.35222656 1.52179688 -4.64195312 1.16859375 -3.91015625 0.8046875 C-2 0 -2 0 0 0 Z " fill="#E89084" transform="translate(306,317)"/>
<path d="M0 0 C-0.33 1.32 -0.66 2.64 -1 4 C-5.29 4 -9.58 4 -14 4 C-9.2157506 0.8105004 -5.77575443 -0.26863974 0 0 Z " fill="#E88678" transform="translate(259,259)"/>
<path d="M0 0 C0.66 0.33 1.32 0.66 2 1 C2 1.99 2 2.98 2 4 C2.99 4.33 3.98 4.66 5 5 C3.68 5.99 2.36 6.98 1 8 C-1 6.75 -1 6.75 -3 5 C-3 3.68 -3 2.36 -3 1 C-2.01 0.67 -1.02 0.34 0 0 Z " fill="#7CA7B4" transform="translate(400,113)"/>
<path d="M0 0 C1.42944945 2.35438733 2.08661261 3.48032433 1.625 6.25 C1.41875 6.8275 1.2125 7.405 1 8 C-0.32 8.33 -1.64 8.66 -3 9 C-3.33 6.69 -3.66 4.38 -4 2 C-2.68 1.34 -1.36 0.68 0 0 Z " fill="#E67364" transform="translate(321,305)"/>
<path d="M0 0 C1.32 0.33 2.64 0.66 4 1 C4.08131463 2.43655854 4.13933559 3.8744483 4.1875 5.3125 C4.22230469 6.11300781 4.25710937 6.91351563 4.29296875 7.73828125 C3.93801608 10.47851584 3.10633718 11.29171079 1 13 C1 11.02 1 9.04 1 7 C1.66 7 2.32 7 3 7 C2.34 6.34 1.68 5.68 1 5 C0.67 5 0.34 5 0 5 C0 3.35 0 1.7 0 0 Z " fill="#E17364" transform="translate(184,274)"/>
<path d="M0 0 C0.66 0.33 1.32 0.66 2 1 C-3.60627803 8.48071749 -3.60627803 8.48071749 -7.0234375 9.75390625 C-8.9375 10 -8.9375 10 -12 10 C-12 9.34 -12 8.68 -12 8 C-10.700625 7.4121875 -10.700625 7.4121875 -9.375 6.8125 C-5.74128495 4.86106043 -3.08299117 2.71596841 0 0 Z " fill="#E79A91" transform="translate(284,243)"/>
<path d="M0 0 C0.66 0 1.32 0 2 0 C2.08159574 4.16138263 1.98248524 7.9472484 1 12 C-0.32 12.33 -1.64 12.66 -3 13 C-2.01 8.71 -1.02 4.42 0 0 Z " fill="#95B5BD" transform="translate(416,187)"/>
<path d="M0 0 C3.26460973 1.80412643 4.88929795 2.83394693 7 6 C6.67 6.66 6.34 7.32 6 8 C3.83125748 7.49396008 2.00032373 7.00016187 0 6 C0 4.02 0 2.04 0 0 Z " fill="#9BBABF" transform="translate(228,405)"/>
<path d="M0 0 C1.65322266 0.01740234 1.65322266 0.01740234 3.33984375 0.03515625 C4.99693359 0.04869141 4.99693359 0.04869141 6.6875 0.0625 C7.54214844 0.07410156 8.39679688 0.08570313 9.27734375 0.09765625 C2.82528005 3.47469384 -3.59624752 3.22441056 -10.72265625 3.09765625 C-10.72265625 2.76765625 -10.72265625 2.43765625 -10.72265625 2.09765625 C-9.58828125 1.95328125 -8.45390625 1.80890625 -7.28515625 1.66015625 C-3.86902144 1.12076654 -3.22831681 0.11579329 0 0 Z " fill="#DF968C" transform="translate(261.72265625,284.90234375)"/>
<path d="M0 0 C3.10190545 4.65285818 4.33846504 9.41532676 4 15 C2 14 2 14 0.875 11.4375 C-0.14837318 7.41710538 -0.14258282 4.13490187 0 0 Z " fill="#A5BEC1" transform="translate(244,423)"/>
<path d="M0 0 C1.32 0 2.64 0 4 0 C4.93065133 2.60582371 5.14917407 3.64198224 4.0625 6.25 C3.5365625 7.11625 3.5365625 7.11625 3 8 C1.35 6.02 -0.3 4.04 -2 2 C-1.34 2 -0.68 2 0 2 C0 1.34 0 0.68 0 0 Z " fill="#91B6C0" transform="translate(140,399)"/>
<path d="M0 0 C1.65 0 3.3 0 5 0 C5.33 1.98 5.66 3.96 6 6 C3.69 6 1.38 6 -1 6 C-0.67 4.02 -0.34 2.04 0 0 Z " fill="#E7695A" transform="translate(220,347)"/>
<path d="M0 0 C1.65 0 3.3 0 5 0 C5.33 1.98 5.66 3.96 6 6 C6.99 6.33 7.98 6.66 9 7 C9.33 8.65 9.66 10.3 10 12 C5.125 7.375 5.125 7.375 4 4 C3.34 4 2.68 4 2 4 C1.34 2.68 0.68 1.36 0 0 Z " fill="#E49790" transform="translate(208,341)"/>
<path d="M0 0 C0.33 0 0.66 0 1 0 C1 2.64 1 5.28 1 8 C-0.32 8 -1.64 8 -3 8 C-3.66 6.35 -4.32 4.7 -5 3 C-3.68 3 -2.36 3 -1 3 C-0.67 2.01 -0.34 1.02 0 0 Z " fill="#9EBEC3" transform="translate(252,134)"/>
<path d="M0 0 C1.98 0.66 3.96 1.32 6 2 C6 2.66 6 3.32 6 4 C4.68 4 3.36 4 2 4 C2 4.66 2 5.32 2 6 C0.68 6 -0.64 6 -2 6 C-2 4.68 -2 3.36 -2 2 C-1.34 2 -0.68 2 0 2 C0 1.34 0 0.68 0 0 Z " fill="#E3725B" transform="translate(194,283)"/>
<path d="M0 0 C1.32 0 2.64 0 4 0 C4 1.32 4 2.64 4 4 C2.68 4 1.36 4 0 4 C0 4.66 0 5.32 0 6 C-0.99 6 -1.98 6 -3 6 C-1.125 1.125 -1.125 1.125 0 0 Z " fill="#79AABD" transform="translate(277,491)"/>
<path d="M0 0 C0.66 0 1.32 0 2 0 C0.68139111 4.61513112 -1.21355437 8.09897612 -4 12 C-4.33 10.68 -4.66 9.36 -5 8 C-4.34 8 -3.68 8 -3 8 C-2.67 6.02 -2.34 4.04 -2 2 C-1.34 2 -0.68 2 0 2 C0 1.34 0 0.68 0 0 Z " fill="#E69C91" transform="translate(315,323)"/>
<path d="M0 0 C3.9197409 0.78394818 7.43103121 2.2155156 11 4 C12.4375 6.1875 12.4375 6.1875 13 8 C8.50202887 6.31326082 4.27113698 4.18326108 0 2 C0 1.34 0 0.68 0 0 Z " fill="#9FBCC3" transform="translate(212,103)"/>
<path d="M0 0 C0.99 0 1.98 0 3 0 C2.40716379 3.39192363 1.23256811 5.2107757 -1.0625 7.75 C-1.61035156 8.36359375 -2.15820312 8.9771875 -2.72265625 9.609375 C-3.14417969 10.06828125 -3.56570312 10.5271875 -4 11 C-4 7.8525787 -3.399734 6.71198463 -2 4 C-2 3.34 -2 2.68 -2 2 C-1.34 2 -0.68 2 0 2 C0 1.34 0 0.68 0 0 Z " fill="#72A2B2" transform="translate(31,95)"/>
<path d="M0 0 C2.31 0 4.62 0 7 0 C7 2.31 7 4.62 7 7 C5.83040013 6.02433888 4.66438823 5.044375 3.5 4.0625 C2.8503125 3.51722656 2.200625 2.97195313 1.53125 2.41015625 C1.0259375 1.94480469 0.520625 1.47945313 0 1 C0 0.67 0 0.34 0 0 Z " fill="#95B7C1" transform="translate(170,431)"/>
<path d="M0 0 C0.66 0 1.32 0 2 0 C2 0.66 2 1.32 2 2 C2.66 2 3.32 2 4 2 C4 3.32 4 4.64 4 6 C4.66 6.33 5.32 6.66 6 7 C4.68 7.99 3.36 8.98 2 10 C2 8.02 2 6.04 2 4 C1.34 4 0.68 4 0 4 C0 2.68 0 1.36 0 0 Z " fill="#E3836D" transform="translate(290,347)"/>
<path d="M0 0 C2 2 2 2 2 6 C1.34 6 0.68 6 0 6 C0 6.66 0 7.32 0 8 C-1.32 7.34 -2.64 6.68 -4 6 C-3.34 4.68 -2.68 3.36 -2 2 C-1.34 2 -0.68 2 0 2 C0 1.34 0 0.68 0 0 Z " fill="#7EAEBF" transform="translate(394,233)"/>
<path d="M0 0 C1.2065625 0.0309375 1.2065625 0.0309375 2.4375 0.0625 C2.4375 1.3825 2.4375 2.7025 2.4375 4.0625 C1.7775 4.0625 1.1175 4.0625 0.4375 4.0625 C0.4375 4.7225 0.4375 5.3825 0.4375 6.0625 C-0.8825 5.7325 -2.2025 5.4025 -3.5625 5.0625 C-2.9025 4.0725 -2.2425 3.0825 -1.5625 2.0625 C-2.2225 1.7325 -2.8825 1.4025 -3.5625 1.0625 C-2.5625 0.0625 -2.5625 0.0625 0 0 Z " fill="#E66857" transform="translate(245.5625,202.9375)"/>
<path d="M0 0 C1.32 0.66 2.64 1.32 4 2 C3.34 2 2.68 2 2 2 C1.67 3.98 1.34 5.96 1 8 C0.01 7.67 -0.98 7.34 -2 7 C-1.125 2.25 -1.125 2.25 0 0 Z " fill="#E56756" transform="translate(188,282)"/>
<path d="M0 0 C0.33 0.66 0.66 1.32 1 2 C0.67 2.66 0.34 3.32 0 4 C-0.66 4 -1.32 4 -2 4 C-2 4.66 -2 5.32 -2 6 C-2.66 6 -3.32 6 -4 6 C-4.12375 6.639375 -4.2475 7.27875 -4.375 7.9375 C-4.58125 8.618125 -4.7875 9.29875 -5 10 C-5.99 10.495 -5.99 10.495 -7 11 C-5.64615385 3.49230769 -5.64615385 3.49230769 -2.375 1 C-1.199375 0.505 -1.199375 0.505 0 0 Z " fill="#73A6B4" transform="translate(382,253)"/>
<path d="M0 0 C0.66 0.33 1.32 0.66 2 1 C2.33 1.99 2.66 2.98 3 4 C2.34 4 1.68 4 1 4 C0.67 4.66 0.34 5.32 0 6 C0 5.34 0 4.68 0 4 C-0.99 4 -1.98 4 -3 4 C-3 4.66 -3 5.32 -3 6 C-3.99 6 -4.98 6 -6 6 C-6 5.34 -6 4.68 -6 4 C-4.03852126 2.61061923 -2.03833424 1.2739589 0 0 Z " fill="#E58F83" transform="translate(277,229)"/>
<path d="M0 0 C2.31 0 4.62 0 7 0 C7 0.66 7 1.32 7 2 C6.21625 2.144375 5.4325 2.28875 4.625 2.4375 C2.03578982 2.87798925 2.03578982 2.87798925 0 4 C0 4.66 0 5.32 0 6 C-0.66 6 -1.32 6 -2 6 C-2 4.68 -2 3.36 -2 2 C-1.34 2 -0.68 2 0 2 C0 1.34 0 0.68 0 0 Z " fill="#F07161" transform="translate(292,169)"/>
<path d="M0 0 C2.40034102 3.60051153 4.32187705 6.96144535 3.625 11.375 C3.41875 11.91125 3.2125 12.4475 3 13 C0.41073669 10.41073669 0.62601957 8.97294721 0.375 5.375 C0.30023438 4.37210937 0.22546875 3.36921875 0.1484375 2.3359375 C0.09945312 1.56507812 0.05046875 0.79421875 0 0 Z " fill="#9DB7C0" transform="translate(248,121)"/>
<path d="M0 0 C1.48285242 0.95262034 2.96118201 1.91228405 4.4375 2.875 C5.67306641 3.67550781 5.67306641 3.67550781 6.93359375 4.4921875 C9 6 9 6 10 8 C8.68 8 7.36 8 6 8 C6 7.34 6 6.68 6 6 C5.071875 5.9071875 5.071875 5.9071875 4.125 5.8125 C3.073125 5.4103125 3.073125 5.4103125 2 5 C0.8671875 2.44921875 0.8671875 2.44921875 0 0 Z " fill="#E59B94" transform="translate(194,279)"/>
<path d="M0 0 C1.32 0 2.64 0 4 0 C4 1.65 4 3.3 4 5 C2.02 5.99 2.02 5.99 0 7 C0 6.34 0 5.68 0 5 C0.66 5 1.32 5 2 5 C2 4.01 2 3.02 2 2 C0.35 2.66 -1.3 3.32 -3 4 C-1.75 2 -1.75 2 0 0 Z " fill="#7EAAB7" transform="translate(380,252)"/>
<path d="M0 0 C0.433125 0.9590625 0.433125 0.9590625 0.875 1.9375 C1.82823451 4.15206079 1.82823451 4.15206079 4 5 C1.525 6.485 1.525 6.485 -1 8 C-1.93065133 5.39417629 -2.14917407 4.35801776 -1.0625 1.75 C-0.711875 1.1725 -0.36125 0.595 0 0 Z " fill="#E29B8F" transform="translate(265,243)"/>
<path d="M0 0 C1.2065625 0.0309375 1.2065625 0.0309375 2.4375 0.0625 C0.6875 5.8125 0.6875 5.8125 -1.5625 8.0625 C-1.5625 6.0825 -1.5625 4.1025 -1.5625 2.0625 C-2.2225 1.7325 -2.8825 1.4025 -3.5625 1.0625 C-2.5625 0.0625 -2.5625 0.0625 0 0 Z " fill="#E68680" transform="translate(249.5625,198.9375)"/>
<path d="M0 0 C0.66 0 1.32 0 2 0 C1.65120368 3.25543229 0.97866739 4.01873107 -1.5625 6.25 C-2.366875 6.8275 -3.17125 7.405 -4 8 C-4 6.68 -4 5.36 -4 4 C-3.34 4 -2.68 4 -2 4 C-1.34 2.68 -0.68 1.36 0 0 Z " fill="#A1BFC3" transform="translate(440,337)"/>
<path d="M0 0 C0.66 0 1.32 0 2 0 C2 0.66 2 1.32 2 2 C2.66 2 3.32 2 4 2 C4 3.98 4 5.96 4 8 C4.66 8.33 5.32 8.66 6 9 C5.01 10.485 5.01 10.485 4 12 C3.3291288 10.3767313 2.66342971 8.75132422 2 7.125 C1.62875 6.22007812 1.2575 5.31515625 0.875 4.3828125 C0 2 0 2 0 0 Z " fill="#E5988F" transform="translate(192,309)"/>
<path d="M0 0 C0.66 0 1.32 0 2 0 C2.66 1.98 3.32 3.96 4 6 C-1.75 4.25 -1.75 4.25 -4 2 C-2.68 2 -1.36 2 0 2 C0 1.34 0 0.68 0 0 Z " fill="#E3907F" transform="translate(208,277)"/>
<path d="M0 0 C0.33 0.66 0.66 1.32 1 2 C-0.2739589 4.03833424 -1.61061923 6.03852126 -3 8 C-3.66 8 -4.32 8 -5 8 C-4.64950425 4.75791433 -4.43778819 3.38472296 -1.9375 1.1875 C-1.298125 0.795625 -0.65875 0.40375 0 0 Z " fill="#81A9B4" transform="translate(372,262)"/>
<path d="M0 0 C2.62386487 3.06117568 3 3.73173127 3 8 C1.35 8 -0.3 8 -2 8 C-2 7.34 -2 6.68 -2 6 C-1.34 6 -0.68 6 0 6 C0 4.02 0 2.04 0 0 Z " fill="#E69184" transform="translate(250,247)"/>
<path d="M0 0 C0.99 0.33 1.98 0.66 3 1 C3 1.66 3 2.32 3 3 C0 5 0 5 -4 5 C-4 3.68 -4 2.36 -4 1 C-3.01 1.33 -2.02 1.66 -1 2 C-0.67 1.34 -0.34 0.68 0 0 Z " fill="#EB7B6E" transform="translate(230,230)"/>
<path d="M0 0 C3 0.3125 3 0.3125 6 1 C6.33 1.66 6.66 2.32 7 3 C6.01 3.99 5.02 4.98 4 6 C4 5.34 4 4.68 4 4 C3.34 4 2.68 4 2 4 C2 3.34 2 2.68 2 2 C1.01 1.67 0.02 1.34 -1 1 C-0.67 0.67 -0.34 0.34 0 0 Z " fill="#E79081" transform="translate(224,227)"/>
<path d="M0 0 C0.66 0 1.32 0 2 0 C1.82374165 2.37948772 1.30280227 3.70225849 -0.40234375 5.37890625 C-1.90649092 6.62115486 -3.45129851 7.81376056 -5 9 C-4.49396008 6.83125748 -4.00016187 5.00032373 -3 3 C-2.01 3 -1.02 3 0 3 C0 2.01 0 1.02 0 0 Z " fill="#A1B9BF" transform="translate(117,116)"/>
<path d="M0 0 C1.65 0 3.3 0 5 0 C3.95125002 2.62187494 3.35068687 3.79371361 0.875 5.25 C0.25625 5.4975 -0.3625 5.745 -1 6 C-0.67 4.02 -0.34 2.04 0 0 Z " fill="#94B4B9" transform="translate(120,111)"/>
<path d="M0 0 C2.1875 0.3125 2.1875 0.3125 4 1 C3.01 1.495 3.01 1.495 2 2 C1.34786708 4.02463255 1.34786708 4.02463255 1 6 C0.34 6 -0.32 6 -1 6 C-1 5.34 -1 4.68 -1 4 C-1.66 3.67 -2.32 3.34 -3 3 C-1.75 1.4375 -1.75 1.4375 0 0 Z " fill="#91B6BA" transform="translate(279,411)"/>
<path d="M0 0 C0.66 0.33 1.32 0.66 2 1 C-1.75 5.875 -1.75 5.875 -4 7 C-4.99 6.34 -5.98 5.68 -7 5 C-4.69 3.35 -2.38 1.7 0 0 Z " fill="#9BBABF" transform="translate(331,371)"/>
<path d="M0 0 C1.32 0.66 2.64 1.32 4 2 C-1.75 7 -1.75 7 -4 7 C-4 6.34 -4 5.68 -4 5 C-3.34 5 -2.68 5 -2 5 C-1.7834375 4.0409375 -1.7834375 4.0409375 -1.5625 3.0625 C-1 1 -1 1 0 0 Z " fill="#E5978A" transform="translate(286,358)"/>
<path d="M0 0 C1.32 0 2.64 0 4 0 C4.33 1.98 4.66 3.96 5 6 C4.01 6 3.02 6 2 6 C0 3 0 3 0 0 Z " fill="#E47F73" transform="translate(204,333)"/>
<path d="M0 0 C1.4540625 0.0309375 1.4540625 0.0309375 2.9375 0.0625 C2.6075 1.3825 2.2775 2.7025 1.9375 4.0625 C-0.92974686 3.48905063 -1.9239515 3.2010485 -4.0625 1.0625 C-3.0625 0.0625 -3.0625 0.0625 0 0 Z " fill="#E49C88" transform="translate(291.0625,278.9375)"/>
<path d="M0 0 C0.66 0 1.32 0 2 0 C2.33 1.98 2.66 3.96 3 6 C2.34 6 1.68 6 1 6 C1 6.66 1 7.32 1 8 C0.34 8 -0.32 8 -1 8 C-1.33 6.35 -1.66 4.7 -2 3 C-1.34 2.67 -0.68 2.34 0 2 C0 1.34 0 0.68 0 0 Z " fill="#E6725C" transform="translate(247,247)"/>
<path d="M0 0 C2 3.75 2 3.75 2 6 C2.99 6.33 3.98 6.66 5 7 C3.35 7.33 1.7 7.66 0 8 C-1.125 2.25 -1.125 2.25 0 0 Z " fill="#E67D73" transform="translate(267,239)"/>
<path d="M0 0 C0.82638376 2.89234315 1 4.88742431 1 8 C-0.32 7.34 -1.64 6.68 -3 6 C-3 4.35 -3 2.7 -3 1 C-2.01 0.67 -1.02 0.34 0 0 Z " fill="#82A8B3" transform="translate(11,229)"/>
<path d="M0 0 C0.66 0 1.32 0 2 0 C1.6875 2.875 1.6875 2.875 1 6 C0.01 6.66 -0.98 7.32 -2 8 C-2.33 6.68 -2.66 5.36 -3 4 C-2.34 4 -1.68 4 -1 4 C-0.67 2.68 -0.34 1.36 0 0 Z " fill="#E86455" transform="translate(206,175)"/>
<path d="M0 0 C4.99275057 1.27721526 7.57611908 3.17330957 11 7 C8.125 6.75 8.125 6.75 5 6 C3.8125 4 3.8125 4 3 2 C2.01 1.67 1.02 1.34 0 1 C0 0.67 0 0.34 0 0 Z " fill="#E6A49C" transform="translate(295,165)"/>
<path d="M0 0 C2.475 0.495 2.475 0.495 5 1 C5 1.99 5 2.98 5 4 C5.66 4 6.32 4 7 4 C6.67 5.32 6.34 6.64 6 8 C6 7.34 6 6.68 6 6 C5.34 6 4.68 6 4 6 C2.61061923 4.03852126 1.2739589 2.03833424 0 0 Z " fill="#98B4BB" transform="translate(235,119)"/>
<path d="M0 0 C4.455 0.99 4.455 0.99 9 2 C5.23312136 3.88343932 3.97041037 4.22057835 0 4 C0 2.68 0 1.36 0 0 Z " fill="#A1BFC0" transform="translate(418,47)"/>
<path d="M0 0 C0.99 0.66 1.98 1.32 3 2 C1.02 2.99 1.02 2.99 -1 4 C-1 4.66 -1 5.32 -1 6 C-1.66 6 -2.32 6 -3 6 C-3.33 6.66 -3.66 7.32 -4 8 C-3.67 6.35 -3.34 4.7 -3 3 C-2.01 2.67 -1.02 2.34 0 2 C0 1.34 0 0.68 0 0 Z " fill="#9EBDC4" transform="translate(285,487)"/>
<path d="M0 0 C0.33 0.66 0.66 1.32 1 2 C0.22265625 3.7265625 0.22265625 3.7265625 -0.9375 5.625 C-1.618125 6.73875 -2.29875 7.8525 -3 9 C-3.33 9 -3.66 9 -4 9 C-4.25 6.75 -4.25 6.75 -4 4 C-2 1.6875 -2 1.6875 0 0 Z " fill="#9EB9BF" transform="translate(246,440)"/>
<path d="M0 0 C0.99 0.33 1.98 0.66 3 1 C2.01 2.485 2.01 2.485 1 4 C0.34 4 -0.32 4 -1 4 C-1.33 4.99 -1.66 5.98 -2 7 C-2.66 7 -3.32 7 -4 7 C-4 6.01 -4 5.02 -4 4 C-3.34 4 -2.68 4 -2 4 C-2 3.34 -2 2.68 -2 2 C-1.34 2 -0.68 2 0 2 C0 1.34 0 0.68 0 0 Z " fill="#A9C0C5" transform="translate(399,377)"/>
<path d="M0 0 C0.99 0 1.98 0 3 0 C1.55746343 3.36591866 -0.33264727 5.51047079 -3 8 C-2.67 6.02 -2.34 4.04 -2 2 C-1.34 2 -0.68 2 0 2 C0 1.34 0 0.68 0 0 Z " fill="#E79E93" transform="translate(303,341)"/>
<path d="M0 0 C-0.33 0.99 -0.66 1.98 -1 3 C-2.98 3 -4.96 3 -7 3 C-7.33 2.01 -7.66 1.02 -8 0 C-5.13822943 -1.43088528 -3.06624227 -0.59991697 0 0 Z " fill="#E86157" transform="translate(229,310)"/>
<path d="M0 0 C0.66 0.33 1.32 0.66 2 1 C2 1.99 2 2.98 2 4 C1.34 4 0.68 4 0 4 C0 5.32 0 6.64 0 8 C-1.32 8.33 -2.64 8.66 -4 9 C-2.80100302 5.9168649 -1.52299523 2.93720508 0 0 Z " fill="#99B9BF" transform="translate(422,293)"/>
<path d="M0 0 C0.66 0 1.32 0 2 0 C0.6302836 3.99500618 -1.25722422 6.80009492 -4 10 C-4 8.68 -4 7.36 -4 6 C-3.34 6 -2.68 6 -2 6 C-2.33 5.01 -2.66 4.02 -3 3 C-2.01 2.67 -1.02 2.34 0 2 C0 1.34 0 0.68 0 0 Z " fill="#A4BBC0" transform="translate(486,283)"/>
<path d="M0 0 C-0.66 1.98 -1.32 3.96 -2 6 C-2.66 6 -3.32 6 -4 6 C-4.66 4.35 -5.32 2.7 -6 1 C-4 0 -4 0 0 0 Z " fill="#E48675" transform="translate(274,253)"/>
<path d="M0 0 C0.99 0.33 1.98 0.66 3 1 C0.47043472 4.0916909 -2.22454612 4.90931332 -6 6 C-5.34 4.68 -4.68 3.36 -4 2 C-2.68 2 -1.36 2 0 2 C0 1.34 0 0.68 0 0 Z " fill="#E3796C" transform="translate(274,233)"/>
<path d="M0 0 C1 4 1 4 1 8 C-0.98 8.99 -0.98 8.99 -3 10 C-2.01 6.7 -1.02 3.4 0 0 Z " fill="#94B8BC" transform="translate(270,109)"/>
<path d="M0 0 C5 2 5 2 10 4 C9.67 5.32 9.34 6.64 9 8 C7.49712782 6.85793642 5.99776716 5.71125043 4.5 4.5625 C3.6646875 3.92441406 2.829375 3.28632812 1.96875 2.62890625 C1.3190625 2.09136719 0.669375 1.55382812 0 1 C0 0.67 0 0.34 0 0 Z " fill="#9AB9C2" transform="translate(383,106)"/>
<path d="M0 0 C0.66 0.99 1.32 1.98 2 3 C0.71034824 4.37562854 -0.62689293 5.70766393 -2 7 C-2.66 7 -3.32 7 -4 7 C-2.92598892 4.08482708 -2.22189824 2.22189824 0 0 Z " fill="#8AB4BF" transform="translate(28,97)"/>
<path d="M0 0 C0.66 0 1.32 0 2 0 C1.34 2.31 0.68 4.62 0 7 C-1.32 7.33 -2.64 7.66 -4 8 C-3.67 6.68 -3.34 5.36 -3 4 C-2.34 4 -1.68 4 -1 4 C-0.67 2.68 -0.34 1.36 0 0 Z " fill="#75A7B3" transform="translate(48,77)"/>
<path d="M0 0 C-1.39332574 3.36720387 -2.9789286 4.9859524 -6 7 C-6 5.68 -6 4.36 -6 3 C-5.34 3 -4.68 3 -4 3 C-4 2.34 -4 1.68 -4 1 C-2 0 -2 0 0 0 Z " fill="#93B7BF" transform="translate(342,434)"/>
<path d="M0 0 C0.66 0.33 1.32 0.66 2 1 C1.67 2.32 1.34 3.64 1 5 C-1.31 5.33 -3.62 5.66 -6 6 C-4 4 -2 2 0 0 Z " fill="#A0BAC1" transform="translate(288,403)"/>
<path d="M0 0 C0.99 0.33 1.98 0.66 3 1 C3 1.66 3 2.32 3 3 C3.66 3 4.32 3 5 3 C5.33 4.65 5.66 6.3 6 8 C1.3125 4.38671875 1.3125 4.38671875 0 3 C0 2.01 0 1.02 0 0 Z " fill="#95B4BD" transform="translate(132,393)"/>
<path d="M0 0 C3.96 1.98 3.96 1.98 8 4 C7.67 4.66 7.34 5.32 7 6 C6.01 6 5.02 6 4 6 C4 5.34 4 4.68 4 4 C3.01 3.67 2.02 3.34 1 3 C0.67 2.01 0.34 1.02 0 0 Z " fill="#A7BEC2" transform="translate(144,347)"/>
<path d="M0 0 C1.32 0.33 2.64 0.66 4 1 C0.535 3.97 0.535 3.97 -3 7 C-3 6.01 -3 5.02 -3 4 C-2.34 4 -1.68 4 -1 4 C-0.67 2.68 -0.34 1.36 0 0 Z " fill="#A2BABF" transform="translate(456,321)"/>
<path d="M0 0 C-1.39332574 3.36720387 -2.9789286 4.9859524 -6 7 C-6 5.35 -6 3.7 -6 2 C-2.25 0 -2.25 0 0 0 Z " fill="#A0B9BF" transform="translate(386,317)"/>
<path d="M0 0 C1.32 0 2.64 0 4 0 C4 0.66 4 1.32 4 2 C5.32 2.33 6.64 2.66 8 3 C2.25 4.125 2.25 4.125 0 3 C0 2.01 0 1.02 0 0 Z " fill="#DC8D7B" transform="translate(276,317)"/>
<path d="M0 0 C0.66 0.33 1.32 0.66 2 1 C1.34 1.66 0.68 2.32 0 3 C-0.70710678 4.64991582 -1.37943989 6.31562256 -2 8 C-2.99 7.67 -3.98 7.34 -5 7 C-1.125 1.125 -1.125 1.125 0 0 Z " fill="#EA7C73" transform="translate(299,231)"/>
<path d="M0 0 C1.65 0 3.3 0 5 0 C4 2 3 4 2 6 C1.34 5.67 0.68 5.34 0 5 C0 3.35 0 1.7 0 0 Z " fill="#ED998D" transform="translate(303,207)"/>
<path d="M0 0 C0.33 0 0.66 0 1 0 C1.08131463 1.43655854 1.13933559 2.8744483 1.1875 4.3125 C1.23970703 5.51326172 1.23970703 5.51326172 1.29296875 6.73828125 C0.93801608 9.47851584 0.10633718 10.29171079 -2 12 C-1 3.42857143 -1 3.42857143 0 0 Z " fill="#9AB9C3" transform="translate(5,141)"/>
<path d="M0 0 C0.99 0 1.98 0 3 0 C3 0.66 3 1.32 3 2 C3.66 2 4.32 2 5 2 C5 3.32 5 4.64 5 6 C4.34 6 3.68 6 3 6 C3 5.34 3 4.68 3 4 C2.34 4 1.68 4 1 4 C0.67 2.68 0.34 1.36 0 0 Z " fill="#77ABBB" transform="translate(205,461)"/>
<path d="M0 0 C1.65 0 3.3 0 5 0 C5 0.66 5 1.32 5 2 C4.34 2 3.68 2 3 2 C3 2.66 3 3.32 3 4 C1.68 4 0.36 4 -1 4 C-0.67 2.68 -0.34 1.36 0 0 Z " fill="#EF5E57" transform="translate(269,367)"/>
<path d="M0 0 C0.99 0 1.98 0 3 0 C1.8141763 3.37503669 0.72426311 5.64722731 -2 8 C-2 6.68 -2 5.36 -2 4 C-1.34 4 -0.68 4 0 4 C0 2.68 0 1.36 0 0 Z " fill="#A6BCC3" transform="translate(391,305)"/>
<path d="M0 0 C0.99 0 1.98 0 3 0 C3 1.98 3 3.96 3 6 C1.68 5.67 0.36 5.34 -1 5 C-0.67 3.35 -0.34 1.7 0 0 Z " fill="#DF8279" transform="translate(326,286)"/>
<path d="M0 0 C1.32 0.33 2.64 0.66 4 1 C1.03 3.475 1.03 3.475 -2 6 C-2 4.68 -2 3.36 -2 2 C-1.34 2 -0.68 2 0 2 C0 1.34 0 0.68 0 0 Z " fill="#A5BBC3" transform="translate(378,397)"/>
<path d="M0 0 C0.99 0.33 1.98 0.66 3 1 C1.25 5.875 1.25 5.875 -1 7 C-1.04254356 5.00045254 -1.04080783 2.99958364 -1 1 C-0.67 0.67 -0.34 0.34 0 0 Z " fill="#E49589" transform="translate(307,334)"/>
<path d="M0 0 C1.32 0.33 2.64 0.66 4 1 C3.67 1.99 3.34 2.98 3 4 C1.35 4 -0.3 4 -2 4 C-2 3.34 -2 2.68 -2 2 C-1.34 2 -0.68 2 0 2 C0 1.34 0 0.68 0 0 Z " fill="#E47866" transform="translate(197,289)"/>
<path d="M0 0 C0.99 0.33 1.98 0.66 3 1 C0.03 3.475 0.03 3.475 -3 6 C-3.33 4.68 -3.66 3.36 -4 2 C-2.68 2 -1.36 2 0 2 C0 1.34 0 0.68 0 0 Z " fill="#E7928C" transform="translate(280,237)"/>
<path d="M0 0 C1.32 0 2.64 0 4 0 C4 0.66 4 1.32 4 2 C4.66 2 5.32 2 6 2 C6 2.66 6 3.32 6 4 C4.68 4 3.36 4 2 4 C2 3.34 2 2.68 2 2 C1.01 1.67 0.02 1.34 -1 1 C-0.67 0.67 -0.34 0.34 0 0 Z " fill="#F0715E" transform="translate(232,233)"/>
<path d="M0 0 C0.66 0 1.32 0 2 0 C2 1.32 2 2.64 2 4 C1.01 4.495 1.01 4.495 0 5 C-0.33 5.66 -0.66 6.32 -1 7 C-1.66 7 -2.32 7 -3 7 C-1.125 2.25 -1.125 2.25 0 0 Z " fill="#8BAFBB" transform="translate(406,214)"/>
<path d="M0 0 C0.66 0 1.32 0 2 0 C2 0.99 2 1.98 2 3 C2.99 3 3.98 3 5 3 C5 4.65 5 6.3 5 8 C2.20127563 5.47211993 0.54226981 3.79588866 0 0 Z " fill="#E88E8A" transform="translate(264,203)"/>
<path d="M0 0 C5.875 3.75 5.875 3.75 7 6 C6.01 6 5.02 6 4 6 C4 5.34 4 4.68 4 4 C2.68 4 1.36 4 0 4 C0 2.68 0 1.36 0 0 Z " fill="#A7BCC2" transform="translate(210,63)"/>
</svg>
